<?xml version="1.0" standalone="no"?>
<!DOCTYPE svg PUBLIC "-//W3C//DTD SVG 20010904//EN"
 "http://www.w3.org/TR/2001/REC-SVG-20010904/DTD/svg10.dtd">
<svg version="1.0" xmlns="http://www.w3.org/2000/svg"
 width="1280.000000pt" height="1280.000000pt" viewBox="0 0 1280.000000 1280.000000"
 preserveAspectRatio="xMidYMid meet">
<metadata>
Created by potrace 1.15, written by Peter Selinger 2001-2017
</metadata>
<g transform="translate(0.000000,1280.000000) scale(0.100000,-0.100000)"
fill="#43436b" stroke="none">
<path d="M4588 10173 c-1 -32 -2 -92 -3 -133 -1 -41 -3 -79 -5 -85 -1 -5 -2
-14 -1 -19 5 -24 -11 -54 -33 -64 -28 -13 -41 -5 -24 16 17 19 20 50 8 72 -7
13 -6 20 3 24 9 3 8 8 -4 18 -9 7 -16 20 -16 28 0 8 -3 25 -7 38 -4 12 -3 22
2 22 15 0 31 46 25 70 -5 20 -10 21 -47 16 -49 -8 -62 -20 -73 -66 -8 -31 -14
-36 -49 -41 -21 -3 -47 -10 -57 -14 -13 -5 -16 -4 -11 9 5 12 0 16 -19 16 -24
0 -42 -23 -32 -40 3 -5 -4 -11 -15 -15 -11 -3 -20 -15 -20 -25 0 -10 -5 -22
-11 -26 -15 -9 11 -24 69 -38 42 -11 46 -14 57 -59 7 -26 15 -50 18 -54 4 -3
2 -13 -5 -20 -9 -11 -9 -17 3 -24 11 -7 12 -11 1 -18 -11 -7 -13 -60 -3 -110
1 -2 8 -1 16 3 9 3 15 0 15 -10 0 -8 -8 -17 -17 -21 -30 -10 -42 -24 -36 -39
3 -8 13 -14 22 -14 13 0 13 -2 2 -9 -10 -7 -11 -10 0 -16 9 -6 6 -11 -10 -17
-19 -7 -21 -11 -11 -23 7 -9 10 -18 7 -22 -4 -3 -9 1 -12 10 -5 11 -21 15 -56
15 -27 1 -53 4 -59 7 -5 3 -17 -6 -26 -20 -9 -14 -23 -24 -30 -21 -8 3 -14 -1
-14 -9 0 -8 -4 -15 -9 -15 -5 0 -11 -8 -14 -19 -5 -21 37 -51 71 -51 11 0 27
-7 36 -15 8 -8 19 -15 25 -15 19 0 12 -16 -13 -30 -15 -8 -41 -11 -66 -7 -30
4 -43 1 -47 -9 -3 -8 -18 -14 -33 -14 -16 0 -31 -4 -34 -9 -6 -9 18 -34 25
-26 10 9 99 16 99 7 0 -16 -38 -44 -50 -37 -6 4 -17 2 -24 -4 -7 -6 -21 -9
-30 -5 -36 14 -13 -18 38 -52 40 -26 61 -34 78 -29 15 4 18 3 10 -3 -10 -7
-10 -11 3 -22 20 -17 19 -29 -4 -54 -11 -12 -22 -40 -24 -64 -5 -39 -4 -42 14
-37 26 9 24 -7 -6 -39 -14 -15 -23 -31 -20 -36 3 -4 -3 -7 -13 -6 -13 1 -16
-6 -15 -29 1 -16 -3 -33 -10 -37 -9 -6 -7 -12 7 -23 20 -15 20 -15 1 -29 -11
-8 -23 -12 -27 -10 -5 3 -8 -2 -8 -12 0 -9 -9 -25 -21 -35 -11 -10 -18 -23
-14 -28 3 -7 0 -8 -9 -5 -9 3 -16 11 -16 18 0 6 -6 0 -14 -14 -12 -23 -11 -27
12 -47 14 -13 20 -23 14 -23 -7 0 -12 -6 -12 -13 0 -21 -42 -54 -77 -62 -32
-6 -32 -7 -26 -51 4 -30 2 -44 -6 -44 -6 0 -11 -5 -11 -11 0 -5 5 -7 10 -4 6
3 10 1 10 -4 0 -6 -4 -11 -10 -11 -5 0 -10 -6 -10 -12 0 -7 -21 -35 -46 -63
-25 -27 -54 -66 -64 -87 -11 -20 -33 -42 -50 -49 -16 -8 -30 -18 -30 -23 0 -4
-6 -4 -13 2 -10 9 -17 4 -31 -19 -11 -18 -23 -28 -32 -25 -8 3 -14 1 -14 -3 0
-5 6 -12 13 -14 6 -3 2 -6 -10 -6 -26 -1 -38 -17 -19 -24 12 -5 12 -11 3 -31
-7 -14 -17 -26 -23 -26 -5 0 -20 -14 -33 -30 -12 -17 -26 -28 -32 -25 -5 4 -9
1 -9 -5 0 -15 -71 -82 -106 -100 -16 -8 -65 -37 -109 -64 -44 -27 -109 -64
-144 -83 -50 -26 -65 -39 -67 -58 -1 -14 1 -23 6 -20 4 2 13 -2 20 -10 19 -22
-5 -20 -46 6 -26 16 -37 18 -54 9 -11 -6 -20 -15 -20 -20 0 -6 -7 -10 -16 -10
-9 0 -27 -11 -40 -25 -13 -14 -34 -29 -48 -35 -15 -5 -27 -20 -31 -39 -4 -20
-11 -28 -21 -24 -7 3 -12 9 -9 13 3 4 -7 11 -21 14 -30 8 -84 -1 -84 -13 0 -5
-12 -21 -27 -36 -25 -25 -26 -28 -7 -23 14 3 25 -1 32 -13 16 -24 15 -29 -3
-29 -25 0 -38 -42 -21 -68 5 -8 3 -23 -4 -37 -10 -19 -9 -27 5 -49 10 -14 21
-26 26 -26 5 0 9 -11 9 -25 0 -19 -5 -25 -17 -23 -14 2 -19 -5 -21 -31 -3 -31
-5 -33 -38 -29 -33 4 -35 3 -29 -24 6 -25 4 -29 -24 -34 -17 -4 -36 -13 -42
-20 -6 -8 -20 -14 -30 -14 -15 0 -19 -7 -19 -36 0 -36 0 -36 25 -20 13 9 37
16 52 16 15 1 51 7 78 14 50 14 50 14 62 -13 66 -145 95 -200 117 -225 20 -23
23 -32 15 -48 -12 -23 -4 -52 11 -43 6 4 17 1 25 -5 8 -7 21 -10 29 -7 7 3 19
0 25 -6 16 -16 14 -32 -2 -18 -20 16 -26 4 -13 -24 6 -14 19 -25 30 -25 15 0
16 -3 7 -14 -9 -10 -9 -16 -1 -21 6 -4 28 -42 48 -84 24 -49 55 -94 89 -127
33 -33 48 -55 42 -61 -6 -6 -1 -19 16 -37 14 -15 25 -34 25 -42 0 -7 7 -14 15
-14 24 0 45 -43 43 -87 -1 -46 18 -103 36 -103 6 0 17 -9 24 -20 7 -11 19 -20
28 -20 8 0 24 -9 36 -20 23 -21 44 -27 33 -10 -3 6 1 10 10 10 12 0 14 -4 5
-19 -5 -11 -15 -23 -21 -27 -8 -4 -7 -9 2 -15 10 -6 9 -12 -6 -30 l-20 -22 28
5 c34 7 67 -23 60 -53 -3 -10 -1 -19 5 -19 15 0 102 -89 102 -105 0 -8 9 -19
20 -25 11 -6 22 -21 26 -35 3 -13 13 -26 21 -29 11 -4 13 -2 10 9 -4 8 -2 17
4 21 7 4 9 -9 6 -35 -3 -26 0 -41 7 -41 6 0 22 -8 35 -17 21 -14 22 -17 8 -22
-15 -6 -11 -16 26 -76 36 -60 47 -71 77 -76 27 -5 29 -7 10 -8 -18 -1 -21 -4
-11 -10 7 -5 11 -13 7 -19 -7 -12 18 -34 29 -24 5 4 5 2 2 -5 -10 -17 25 -74
42 -68 9 4 11 0 7 -10 -3 -9 4 -25 17 -38 12 -12 22 -25 22 -29 0 -3 3 -10 8
-14 4 -4 7 -24 7 -44 0 -30 5 -39 26 -49 17 -7 24 -17 20 -26 -3 -8 0 -15 6
-15 7 0 6 -5 -2 -15 -9 -10 -11 -33 -7 -68 4 -38 0 -68 -14 -107 -14 -40 -16
-57 -8 -67 17 -19 28 -16 22 7 -4 14 0 20 11 20 9 0 16 -6 16 -12 1 -7 9 -3
19 9 11 13 24 23 30 23 19 0 12 27 -11 44 -20 15 -21 16 -3 10 11 -3 26 -7 33
-7 13 0 62 -63 62 -79 0 -5 26 -48 58 -96 87 -131 107 -193 71 -212 -11 -6
-19 -21 -19 -35 0 -14 -5 -25 -10 -25 -11 0 -30 -39 -37 -74 -2 -10 -9 -24
-16 -30 -29 -24 -48 -68 -45 -104 2 -31 7 -37 26 -37 12 0 26 -6 30 -12 8 -13
118 -13 140 1 6 4 26 9 44 11 18 3 42 7 53 9 11 3 30 5 42 5 16 1 21 5 16 17
-3 8 -11 13 -17 11 -6 -3 -12 6 -12 19 -1 13 2 24 8 24 5 0 7 -4 3 -9 -3 -5 0
-13 6 -17 12 -7 32 17 21 26 -18 13 -7 26 26 28 20 2 50 4 65 5 16 1 35 11 43
22 8 11 18 18 22 16 4 -3 9 4 11 14 2 14 -1 16 -15 11 -16 -6 -17 -5 -6 6 10
10 17 10 31 1 17 -11 18 -8 15 50 -1 34 0 56 3 50 7 -18 33 -16 33 1 0 8 -3
16 -7 19 -5 2 -2 2 4 1 7 -2 16 9 19 24 4 15 13 34 21 43 15 18 14 39 -2 51
-6 4 -2 8 9 8 16 0 18 5 13 34 -3 19 -2 36 3 38 5 2 11 14 12 28 2 14 8 31 15
37 7 8 8 25 3 47 -4 19 -6 37 -3 40 3 2 -5 10 -18 16 -20 11 -21 13 -5 22 11
6 15 16 11 29 -5 13 -2 19 10 19 9 0 19 9 22 20 3 11 10 20 17 20 19 0 34 51
43 150 9 87 8 96 -9 108 -15 11 -16 17 -7 28 6 8 8 14 4 14 -5 0 -1 8 7 18 9
11 14 38 14 74 -1 40 3 58 12 58 6 0 12 3 12 8 1 4 3 24 6 45 7 45 -3 97 -15
79 -5 -8 -13 0 -24 24 -10 19 -15 39 -12 44 3 4 -2 13 -10 20 -18 15 -3 40 24
40 16 0 19 -14 21 -90 0 -23 1 -24 12 -6 7 13 7 29 1 51 -7 21 -7 38 -1 49 6
10 7 27 4 39 -3 11 -1 26 5 33 9 11 15 114 7 145 -2 9 -12 28 -21 42 -16 25
-15 31 6 28 4 0 7 8 7 18 0 11 6 22 13 24 10 4 10 6 0 6 -7 1 -13 12 -13 25 0
14 -5 28 -10 31 -8 5 -8 11 0 20 6 7 7 15 2 17 -12 4 -24 58 -13 58 11 0 2 80
-11 97 -5 7 -7 21 -3 32 6 21 -30 100 -49 102 -6 1 -19 1 -28 0 -21 -2 -32 33
-18 59 16 31 -4 53 -42 45 -16 -4 -28 -2 -28 3 0 12 24 22 55 22 13 0 27 4 30
10 3 6 1 10 -4 10 -6 0 -11 5 -11 11 0 7 9 9 22 6 13 -4 29 0 38 8 9 8 32 16
51 19 20 2 35 9 37 18 3 18 40 36 65 32 11 -1 17 4 17 16 0 12 7 18 19 17 11
-1 17 -6 14 -14 -4 -11 0 -11 22 -3 34 13 115 13 115 0 0 -5 7 -7 15 -4 13 5
13 8 0 21 -8 8 -15 18 -15 23 0 13 50 18 83 9 17 -5 33 -5 36 -1 4 4 19 16 35
26 26 17 30 17 38 2 5 -9 18 -16 28 -16 13 0 20 -7 20 -20 0 -11 7 -20 15 -20
8 0 15 -5 15 -10 0 -6 10 -8 23 -5 16 4 31 -2 51 -20 20 -19 37 -26 60 -24 17
2 37 0 43 -4 7 -4 21 -2 32 5 15 9 23 9 34 -1 20 -16 117 -4 117 15 0 19 29
18 36 -1 4 -8 12 -15 20 -15 8 0 23 -9 34 -20 20 -20 20 -20 -4 -35 -13 -9
-28 -15 -32 -14 -22 4 -33 -2 -28 -16 4 -11 2 -13 -9 -9 -8 3 -18 1 -22 -5 -4
-7 8 -10 35 -9 22 1 46 -4 52 -10 7 -7 17 -8 28 -2 12 6 23 5 36 -4 23 -17 44
-10 44 15 0 10 4 19 10 19 5 0 7 -7 4 -15 -4 -8 -1 -15 5 -15 6 0 11 5 11 10
0 6 7 10 15 10 8 0 15 -6 15 -14 0 -7 -7 -19 -15 -26 -22 -18 -18 -25 15 -26
17 -1 30 2 30 6 0 5 14 11 30 15 17 4 28 11 24 16 -3 5 0 9 6 9 8 0 10 -9 6
-26 -7 -25 -5 -26 23 -21 24 5 29 3 24 -9 -4 -10 4 -18 26 -26 45 -18 50 -41
8 -36 -26 3 -33 0 -34 -14 -1 -10 4 -18 10 -18 7 0 25 -7 41 -15 26 -14 31
-14 50 2 12 10 23 21 26 25 8 11 50 5 50 -6 0 -6 4 -6 11 1 13 13 61 -6 56
-22 -2 -5 5 -18 14 -27 17 -16 19 -16 36 0 16 16 16 16 10 -2 -11 -29 2 -84
20 -82 24 2 28 -25 5 -31 -11 -3 -23 -12 -27 -21 -5 -13 -3 -14 5 -6 9 9 27 6
71 -9 65 -22 74 -37 32 -54 -20 -7 -24 -12 -13 -15 8 -3 37 -14 63 -23 46 -16
48 -18 31 -36 -15 -16 -15 -19 -2 -19 9 0 30 -13 48 -30 18 -16 38 -30 46 -30
7 0 17 -7 22 -16 6 -11 17 -15 31 -11 15 4 32 -3 54 -22 18 -15 40 -30 50 -34
9 -4 17 -13 17 -21 0 -15 53 -76 67 -76 13 0 113 -96 113 -108 0 -7 4 -12 9
-12 5 0 16 -15 24 -33 9 -18 26 -42 38 -53 36 -33 50 -70 43 -115 -7 -40 -6
-41 17 -34 16 4 19 3 11 -3 -7 -5 -12 -15 -10 -23 2 -9 -7 -14 -27 -14 -16 0
-30 -5 -30 -11 0 -9 62 -67 133 -124 25 -20 31 -30 27 -55 -10 -79 -33 -124
-56 -109 -6 3 -15 0 -20 -7 -8 -12 -11 -11 -20 4 -14 24 -28 21 -35 -7 -3 -15
-11 -23 -19 -20 -7 3 -15 -4 -18 -15 -6 -26 2 -61 15 -61 5 0 18 -15 29 -34
15 -26 25 -33 41 -28 16 4 20 2 15 -10 -6 -17 21 -48 42 -48 7 0 11 -6 8 -14
-7 -18 24 -30 53 -21 11 3 20 2 20 -4 0 -5 8 -12 18 -15 13 -5 18 -15 17 -35
-1 -19 3 -27 10 -25 7 3 18 -2 25 -11 7 -8 19 -15 26 -15 17 0 18 -12 3 -27
-8 -8 -20 -8 -36 -2 -13 5 -27 8 -31 8 -20 -3 -31 3 -34 18 -3 15 -6 15 -24
-5 l-21 -22 2 22 c1 13 7 22 13 21 8 -2 8 4 0 22 -15 33 -27 32 -34 -5 -6 -25
-11 -30 -36 -30 -23 0 -29 -4 -26 -17 2 -10 12 -19 23 -21 19 -4 45 -28 45
-43 0 -4 -16 -13 -35 -19 -38 -13 -46 -38 -20 -64 8 -8 15 -19 15 -24 0 -5 11
-13 25 -16 14 -4 25 -13 25 -21 0 -8 11 -17 25 -21 14 -3 25 -12 25 -20 0 -8
4 -14 10 -14 5 0 17 -14 25 -31 13 -23 14 -34 5 -44 -7 -8 -9 -19 -5 -25 4 -6
-4 -10 -19 -10 -14 0 -26 -4 -26 -10 0 -5 4 -10 10 -10 5 0 7 -6 4 -14 -5 -13
42 -39 76 -41 53 -4 54 -5 42 -17 -14 -14 -17 -62 -3 -54 5 3 16 -10 25 -29 9
-19 21 -35 26 -35 6 0 10 -4 10 -10 0 -5 -7 -10 -15 -10 -10 0 -15 -10 -15
-32 0 -31 0 -31 -20 -13 -20 18 -21 18 -27 -3 -3 -12 -10 -22 -17 -22 -6 0
-19 -18 -28 -40 -10 -24 -12 -37 -5 -33 6 4 20 8 30 8 14 1 18 -4 14 -22 -2
-12 0 -23 5 -23 5 0 7 -4 4 -9 -6 -10 37 -31 64 -31 27 0 33 -16 18 -47 -10
-21 -21 -28 -50 -29 -24 -2 -38 2 -38 9 0 7 -5 4 -11 -5 -5 -10 -20 -18 -32
-18 l-21 0 21 -15 c16 -11 34 -14 65 -9 l43 7 -19 -22 c-19 -21 -53 -30 -41
-11 3 6 2 10 -4 10 -16 0 -22 -18 -9 -23 7 -2 9 -8 5 -13 -5 -5 -15 -1 -23 10
-12 18 -19 15 -15 -7 0 -4 -6 -7 -14 -7 -8 0 -15 -5 -15 -10 0 -19 30 -22 55
-6 35 23 58 21 50 -4 -4 -14 -2 -20 7 -18 19 4 22 -49 4 -68 -9 -8 -33 -18
-53 -21 -21 -4 -44 -12 -51 -20 -7 -7 -20 -13 -28 -13 -8 0 -19 -11 -24 -25
-5 -14 -14 -25 -20 -25 -6 0 0 -16 12 -35 23 -34 48 -47 48 -23 0 9 3 9 12 0
10 -10 10 -15 -2 -22 -13 -8 -13 -10 1 -10 9 0 21 -12 28 -28 8 -15 17 -34 21
-43 5 -9 7 -59 4 -112 -4 -90 -3 -95 17 -100 15 -4 20 -11 16 -21 -8 -21 3
-20 19 2 7 9 14 14 14 9 0 -4 -16 -23 -36 -42 l-36 -35 -19 21 c-11 12 -19 18
-19 12 0 -5 -36 -10 -82 -11 -58 -1 -86 -6 -93 -15 -7 -10 -17 -12 -32 -6 -14
5 -25 4 -29 -2 -3 -6 -18 -8 -32 -4 -16 4 -28 1 -33 -7 -5 -8 -9 -9 -9 -2 0 7
-14 10 -37 7 -21 -2 -60 -5 -88 -8 -27 -2 -69 -6 -92 -8 -24 -2 -49 -10 -58
-17 -8 -7 -22 -9 -31 -6 -11 4 -18 -1 -21 -14 -3 -11 -13 -20 -22 -20 -9 0
-22 -5 -28 -11 -6 -6 -21 -16 -34 -23 -12 -6 -24 -17 -27 -24 -3 -11 5 -13 39
-8 72 10 78 12 85 19 4 3 16 0 27 -8 14 -10 26 -11 45 -4 34 13 102 2 102 -17
0 -7 19 -23 42 -34 47 -22 68 -25 68 -9 0 7 7 8 18 3 9 -4 28 -9 42 -10 43 -4
70 -16 70 -29 0 -8 13 -13 33 -14 44 -1 63 -5 78 -18 12 -10 74 -18 184 -26
17 -1 36 -8 44 -15 7 -7 23 -12 35 -11 48 3 67 -1 59 -13 -4 -7 -6 -25 -4 -40
1 -14 -3 -29 -8 -33 -6 -3 -9 -16 -6 -28 4 -16 -2 -30 -20 -47 -16 -15 -23
-30 -19 -42 4 -13 -2 -21 -20 -28 -31 -11 -32 -21 -7 -44 14 -13 31 -16 71
-12 29 3 56 9 59 13 3 4 17 9 31 10 95 8 126 15 143 35 14 17 15 23 5 36 -10
12 -10 14 0 8 6 -4 12 -2 12 3 0 6 7 11 15 11 8 0 15 -5 15 -12 0 -6 3 -8 7
-4 11 10 13 39 4 51 -5 5 -9 29 -9 52 -1 41 0 42 26 38 15 -3 54 -9 88 -14 67
-11 109 -25 118 -39 3 -5 17 -7 31 -4 14 2 25 0 25 -5 0 -5 7 -10 15 -10 8 0
15 4 15 9 0 12 71 7 88 -5 14 -11 17 -31 2 -22 -5 3 -19 -4 -30 -15 l-21 -21
20 -6 c12 -3 21 -10 21 -16 0 -6 3 -8 6 -5 3 4 19 2 35 -2 23 -7 31 -5 39 9 5
10 6 22 2 26 -4 4 2 5 13 1 11 -3 26 -1 34 4 10 6 19 3 27 -8 11 -15 14 -14
23 11 12 30 37 32 35 3 -2 -22 5 -20 28 6 20 23 20 23 -4 29 -20 6 -21 7 -5
14 12 5 22 2 32 -11 13 -18 14 -18 32 -1 27 24 43 21 43 -8 0 -21 4 -24 33
-21 17 2 40 6 49 10 11 5 20 1 28 -14 6 -11 15 -18 21 -15 5 4 7 10 4 15 -7
11 27 5 53 -9 16 -8 25 -6 45 13 18 17 42 25 90 30 36 3 83 13 104 22 86 35
193 88 193 95 0 5 -11 4 -24 -1 -20 -7 -24 -6 -22 8 4 27 85 37 216 29 30 -2
69 1 85 6 17 5 57 15 90 23 33 8 64 19 69 24 6 6 18 10 28 10 10 0 18 3 18 8
0 9 -92 8 -107 -1 -6 -4 -13 -3 -15 1 -1 5 -29 21 -60 35 -31 15 -60 32 -63
37 -4 6 -11 8 -16 4 -5 -3 -15 -1 -22 4 -7 6 -35 13 -61 17 -60 7 -96 15 -96
22 0 3 8 12 18 19 13 10 15 17 6 31 -13 22 -7 43 12 43 9 0 13 -4 9 -9 -3 -5
0 -21 6 -34 13 -28 39 -26 39 3 0 10 6 23 14 29 8 7 12 21 9 31 -3 11 0 20 6
20 6 0 11 5 11 11 0 6 -7 9 -15 5 -9 -3 -15 0 -15 9 0 9 -6 12 -17 9 -17 -5
-17 -5 -1 9 10 8 16 16 13 19 -3 2 6 11 20 18 14 7 25 21 25 31 0 9 9 19 20
22 13 3 18 10 14 21 -3 9 -1 16 5 16 14 0 15 47 1 55 -7 4 -7 12 0 25 5 10 10
28 10 39 0 12 5 21 10 21 6 0 10 7 10 15 0 8 -5 15 -11 15 -6 0 -8 8 -4 19 3
12 0 21 -10 25 -17 6 -21 56 -4 56 5 0 7 5 4 10 -8 13 36 51 53 45 6 -2 12 -1
12 3 0 13 -15 28 -33 35 -28 10 -12 24 23 19 23 -3 30 0 30 12 0 11 -5 15 -12
10 -10 -5 -10 -4 -2 5 13 14 7 51 -7 51 -5 0 -9 5 -9 10 0 6 7 10 15 10 13 0
15 9 9 50 -4 33 -3 55 5 64 10 12 9 20 -4 40 -9 14 -14 30 -11 35 4 5 2 12 -4
16 -14 8 -13 26 1 23 6 -2 13 7 15 20 2 13 -1 22 -9 22 -8 0 -7 4 3 11 11 8
12 12 3 16 -23 9 -14 22 13 20 28 -2 27 -5 37 81 3 22 -1 36 -10 39 -17 7 -17
18 4 38 13 13 14 21 5 35 -6 10 -8 21 -4 24 16 16 17 94 2 145 -6 21 -6 40 0
51 5 10 7 19 5 22 -9 8 -13 98 -5 103 4 3 7 32 5 64 -3 46 0 61 12 65 8 3 20
3 25 -1 14 -8 1 15 -24 43 -20 23 -41 84 -29 84 13 0 2 116 -18 188 -11 39
-10 45 5 56 16 12 16 15 -2 38 -15 20 -27 25 -53 23 l-33 -2 43 38 c34 30 41
41 31 51 -6 6 -12 18 -12 25 0 7 -10 24 -21 37 -12 14 -23 42 -24 65 -3 34 0
41 15 41 10 0 21 -6 24 -12 4 -7 3 3 0 22 -4 19 -8 46 -9 60 -1 14 -5 33 -9
43 -5 9 -4 23 1 30 14 17 15 65 2 73 -6 4 -16 0 -21 -7 -8 -11 -8 -10 -4 4 3
10 1 27 -4 38 -8 15 -7 21 5 25 21 8 19 34 -6 60 -19 20 -19 23 -4 38 16 15
16 18 1 41 -11 16 -22 22 -34 19 -10 -4 -13 -3 -6 3 7 4 10 22 7 38 -2 17 -4
37 -3 45 5 84 1 122 -16 134 -10 8 -15 20 -11 30 4 9 1 26 -6 38 -8 14 -9 22
-1 25 8 2 6 25 -4 76 -8 40 -15 82 -17 95 -1 12 -7 28 -13 34 -7 7 -12 26 -12
44 0 18 -5 34 -12 36 -6 2 -13 24 -14 49 -3 74 -3 78 -24 97 -13 12 -18 27
-15 42 3 15 -2 28 -14 37 -12 8 -17 20 -14 32 3 10 -7 37 -21 60 -14 22 -26
44 -26 47 0 4 -7 12 -16 18 -9 7 -17 27 -18 46 -1 19 -8 36 -14 38 -7 2 -12
10 -12 17 0 14 -52 72 -58 66 -2 -1 -7 0 -10 4 -4 4 -2 6 3 5 6 -1 13 -2 17
-1 12 2 -32 79 -48 85 -8 3 -12 11 -9 17 4 6 -7 23 -24 38 -17 15 -31 33 -31
40 0 15 -25 41 -39 41 -6 0 -11 8 -11 18 -1 20 -33 62 -49 62 -6 0 -11 9 -11
20 0 18 -12 24 -47 23 -7 -1 -13 8 -13 18 0 10 -6 19 -13 19 -16 0 -42 44 -34
57 3 5 2 15 -4 23 -6 11 -9 6 -9 -18 0 -34 0 -34 -59 -23 -3 1 7 13 21 29 l27
27 -24 28 c-13 15 -28 27 -34 27 -5 0 -12 9 -16 20 -3 10 -28 34 -55 51 -27
17 -51 38 -54 45 -3 8 -10 14 -16 14 -6 0 -8 -4 -5 -10 3 -5 -1 -10 -9 -10
-19 0 -30 17 -15 22 15 5 -107 108 -143 120 -15 5 -34 20 -43 34 -10 16 -25
24 -44 24 -43 0 -61 10 -61 32 0 11 -8 22 -20 25 -11 3 -20 12 -20 19 0 8 -9
14 -21 14 -11 0 -17 5 -14 10 3 6 1 10 -4 10 -6 0 -11 -5 -11 -11 0 -17 -20 1
-20 19 -1 38 -98 112 -108 83 -5 -15 -33 -14 -29 2 1 6 6 15 12 19 22 16 -5
18 -29 3 -24 -16 -26 -16 -32 -1 -3 9 -10 16 -15 16 -20 0 -49 37 -43 53 3 10
1 17 -5 17 -6 0 -11 -8 -11 -17 0 -15 -2 -15 -9 -4 -7 10 -4 19 7 29 16 13 16
13 -2 8 -13 -5 -17 -2 -13 8 7 17 -20 10 -41 -11 -21 -21 -35 -15 -30 12 5 26
-7 35 -15 13 -3 -9 -9 -7 -19 6 -12 15 -22 18 -46 13 -25 -5 -34 -2 -41 12 -6
10 -8 21 -5 24 3 3 -3 3 -15 0 -12 -3 -21 -11 -21 -18 0 -10 -20 -25 -34 -25
-1 0 -12 22 -24 48 -15 33 -28 48 -42 49 -11 1 -18 -2 -15 -7 13 -22 -16 -17
-33 5 -21 27 -48 34 -39 11 7 -18 -12 -36 -37 -36 -19 1 -19 1 -3 11 21 12 23
33 2 25 -8 -3 -15 -1 -15 3 0 5 -3 16 -6 25 -4 11 -1 16 10 16 9 0 16 -7 16
-15 0 -13 4 -14 23 -4 31 16 31 16 14 33 -8 8 -23 12 -36 9 -11 -3 -21 -1 -21
5 0 5 -12 13 -27 16 -16 4 -36 9 -45 12 -10 3 -18 -2 -21 -13 -4 -15 -6 -15
-12 5 -5 15 -10 20 -15 12 -11 -18 -92 -19 -114 -1 -11 9 -16 10 -12 4 4 -7 2
-13 -3 -13 -6 0 -11 9 -11 20 0 24 -15 26 -28 4 -8 -14 -10 -14 -21 0 -18 21
-28 20 -34 -4 -5 -20 -6 -20 -42 -3 -30 14 -39 15 -57 4 -18 -11 -20 -11 -15
3 5 11 1 16 -13 16 -10 0 -25 7 -34 15 -9 9 -35 16 -63 17 -26 1 -52 4 -58 7
-5 3 -15 6 -21 7 -6 1 -22 5 -34 9 -13 4 -20 3 -17 -2 4 -6 -9 -10 -28 -11
-19 -1 -35 3 -35 8 0 14 -44 12 -58 -2 -9 -9 -15 -9 -23 -1 -12 12 -39 7 -39
-8 0 -5 7 -9 15 -9 8 0 15 -5 15 -11 0 -5 -4 -8 -9 -4 -5 3 -13 0 -16 -5 -5
-7 -12 -5 -21 7 -11 14 -13 15 -14 3 0 -11 -5 -9 -18 7 -18 23 -50 32 -69 20
-6 -4 -32 -3 -57 3 -27 6 -62 6 -91 1 -26 -5 -55 -7 -65 -4 -10 3 -21 0 -24
-5 -3 -6 -23 -8 -44 -5 -23 3 -53 -1 -76 -11 -22 -9 -41 -14 -44 -11 -3 2 -11
-3 -18 -13 -13 -16 -13 -16 -14 1 0 21 -13 21 -73 3 -25 -8 -47 -10 -49 -6 -2
4 -23 -1 -47 -13 -38 -18 -44 -18 -52 -5 -11 21 -66 12 -72 -12 -3 -13 0 -17
9 -13 8 3 14 1 14 -5 0 -6 -13 -8 -30 -6 -18 3 -30 1 -30 -6 0 -5 -16 -18 -35
-27 -35 -17 -35 -17 -65 12 -29 28 -36 25 -30 -14 1 -9 -5 -12 -18 -9 -10 3
-28 0 -38 -5 -10 -6 -39 -13 -63 -14 -52 -3 -58 -7 -41 -28 10 -13 9 -15 -8
-15 -12 0 -24 5 -27 10 -4 6 -11 7 -18 3 -20 -12 -150 -14 -157 -2 -5 8 -17 6
-40 -6 -32 -17 -34 -16 -47 1 -7 10 -13 32 -14 48 0 17 -2 41 -5 54 -2 12 1
22 7 22 11 0 11 66 0 85 -10 19 -10 89 1 96 7 4 6 14 -3 30 -7 15 -14 19 -17
11 -2 -6 -8 -12 -14 -12 -6 0 -4 8 5 18 20 21 19 102 -1 102 -10 0 -9 4 2 16
19 18 20 28 5 74 -6 19 -11 64 -10 100 1 36 -3 72 -9 80 -9 13 -10 13 -11 0 0
-10 -3 -8 -9 5 -13 29 -12 35 6 35 13 0 14 14 9 103 -4 56 -11 134 -16 172 -6
39 -10 85 -9 103 0 17 -4 32 -10 32 -5 0 -10 -10 -10 -22 -1 -23 -1 -23 -15
-3 -13 17 -13 20 0 28 8 4 15 19 15 32 0 13 6 26 13 29 9 3 7 9 -6 19 -12 11
-15 22 -11 46 5 21 3 31 -6 31 -7 0 -10 8 -7 20 3 13 -1 21 -16 26 -21 7 -21
7 -1 23 21 17 20 46 -2 72 -8 9 -11 19 -7 22 3 4 -2 14 -13 22 -10 8 -14 15
-9 15 6 0 3 5 -5 10 -12 8 -13 11 -1 19 8 5 9 11 3 15 -5 3 -13 32 -17 63 -4
37 -14 65 -26 76 -10 10 -19 26 -19 36 0 29 -99 25 -169 -5 -60 -27 -83 -30
-80 -11 1 6 1 31 0 55 -1 40 -3 43 -23 36 -22 -6 -22 -5 -7 12 18 23 25 80 10
97 -6 8 -7 27 -1 50 7 33 6 37 -12 37 -10 0 -28 5 -39 10 -18 10 -19 7 -21
-47z m-18 -324 c0 -5 -5 -7 -12 -3 -8 5 -9 2 -4 -11 5 -15 4 -16 -9 -5 -13 11
-13 15 -3 21 18 12 28 11 28 -2z m145 -19 c3 -6 -1 -7 -9 -4 -18 7 -21 14 -7
14 6 0 13 -4 16 -10z m-21 -35 c-4 -8 -10 -15 -15 -15 -4 0 -6 7 -3 15 4 8 10
15 15 15 4 0 6 -7 3 -15z m11 -55 c-3 -5 -11 -10 -16 -10 -6 0 -7 5 -4 10 3 6
11 10 16 10 6 0 7 -4 4 -10z m-25 -280 c0 -5 -2 -10 -4 -10 -3 0 -8 5 -11 10
-3 6 -1 10 4 10 6 0 11 -4 11 -10z m15 -39 c-3 -6 -11 -8 -17 -5 -6 4 -5 9 3
15 16 10 23 4 14 -10z m29 -26 c-4 -8 -10 -12 -15 -9 -14 8 -10 24 6 24 9 0
12 -6 9 -15z m-473 -158 c-10 -9 -11 -8 -5 6 3 10 9 15 12 12 3 -3 0 -11 -7
-18z m499 -152 c-7 -8 -18 -15 -24 -15 -6 0 -2 7 8 15 25 19 32 19 16 0z
m-510 -9 c0 -3 -4 -8 -10 -11 -5 -3 -10 -1 -10 4 0 6 5 11 10 11 6 0 10 -2 10
-4z m-50 -200 c0 -3 -4 -8 -10 -11 -5 -3 -10 -1 -10 4 0 6 5 11 10 11 6 0 10
-2 10 -4z m940 -450 c0 -3 -4 -8 -10 -11 -5 -3 -10 -1 -10 4 0 6 5 11 10 11 6
0 10 -2 10 -4z m-135 -56 c3 -5 1 -10 -4 -10 -6 0 -11 5 -11 10 0 6 2 10 4 10
3 0 8 -4 11 -10z m1745 -9 c0 -6 -4 -13 -10 -16 -5 -3 -10 1 -10 9 0 9 5 16
10 16 6 0 10 -4 10 -9z m-2140 -5 c0 -2 -7 -7 -16 -10 -8 -3 -12 -2 -9 4 6 10
25 14 25 6z m2380 -16 c8 -5 11 -10 5 -10 -5 0 -17 5 -25 10 -8 5 -10 10 -5
10 6 0 17 -5 25 -10z m-2460 -20 c9 -16 8 -18 -5 -14 -8 4 -15 12 -15 20 0 20
7 17 20 -6z m510 0 c8 -16 8 -20 -4 -20 -9 0 -20 9 -26 20 -8 16 -8 20 4 20 9
0 20 -9 26 -20z m50 0 c0 -5 -7 -10 -16 -10 -8 0 -12 5 -9 10 3 6 10 10 16 10
5 0 9 -4 9 -10z m870 -19 c0 -10 -24 -21 -46 -21 -12 0 -13 3 -2 15 14 16 48
20 48 6z m56 -13 c-12 -7 -21 -7 -28 0 -6 6 0 10 18 10 23 0 24 -2 10 -10z
m-898 -13 c3 -3 -3 -11 -13 -19 -15 -11 -21 -11 -32 -1 -7 7 -22 11 -33 8 -18
-5 -27 6 -15 19 7 6 86 0 93 -7z m1325 3 c3 -8 -5 -14 -20 -14 -19 -2 -22 1
-12 12 14 17 25 18 32 2z m1045 3 c10 -6 10 -10 -3 -21 -8 -7 -15 -10 -15 -7
0 3 -3 12 -6 21 -7 17 3 20 24 7z m-1245 -31 c3 -11 1 -20 -4 -20 -5 0 -9 9
-9 20 0 11 2 20 4 20 2 0 6 -9 9 -20z m797 4 c0 -2 -9 -4 -21 -4 -11 0 -18 4
-14 10 5 8 35 3 35 -6z m-2470 -10 c0 -2 -7 -4 -15 -4 -8 0 -15 4 -15 10 0 5
7 7 15 4 8 -4 15 -8 15 -10z m200 -45 c0 -5 -9 -9 -20 -9 -13 0 -18 5 -14 14
6 15 34 11 34 -5z m1335 11 c3 -5 1 -10 -4 -10 -6 0 -11 5 -11 10 0 6 2 10 4
10 3 0 8 -4 11 -10z m348 -21 c4 -16 3 -18 -9 -8 -7 6 -11 15 -8 20 8 13 11
11 17 -12z m1139 -21 c-7 -7 -12 -8 -12 -2 0 14 12 26 19 19 2 -3 -1 -11 -7
-17z m-1269 -39 c-3 -10 -9 -19 -14 -19 -11 0 -12 21 -3 45 9 23 23 0 17 -26z
m217 30 c0 -7 9 -9 21 -6 16 4 18 3 8 -9 -13 -15 -4 -49 10 -39 5 3 13 0 16
-6 5 -7 15 -3 31 12 21 20 24 21 24 5 0 -14 6 -17 25 -13 37 6 26 -14 -17 -35
-59 -28 -136 -118 -100 -118 30 0 132 54 158 85 25 28 44 38 87 47 62 13 67
11 69 -23 1 -13 5 -29 9 -35 5 -6 -2 -9 -21 -8 -17 1 -30 -3 -30 -8 0 -6 -6
-8 -14 -5 -27 11 -42 -59 -16 -75 11 -7 15 -19 12 -34 -3 -19 -8 -22 -22 -14
-25 13 -51 13 -30 0 8 -5 10 -10 3 -10 -6 0 -9 -8 -6 -19 5 -21 -30 -48 -56
-42 -11 2 -12 0 -4 -11 19 -23 20 -72 1 -76 -19 -4 -93 39 -123 72 -33 35 -91
63 -65 31 7 -8 9 -15 4 -15 -19 0 -32 16 -31 35 1 12 -4 20 -13 20 -8 0 -14
-5 -13 -10 1 -6 -7 -11 -17 -11 -19 0 -18 8 9 40 9 11 11 16 4 12 -7 -3 -23
-4 -37 0 -18 4 -25 12 -23 27 2 16 -5 22 -32 28 -18 4 -37 12 -41 19 -4 7 -16
10 -26 8 -14 -2 -24 7 -36 34 -9 21 -21 38 -25 38 -4 0 -14 4 -22 9 -12 8 -12
12 2 25 9 9 18 12 21 7 4 -5 18 -6 34 -2 15 4 44 6 64 3 37 -4 38 -3 34 26 -3
26 0 30 20 28 16 -1 22 -7 21 -21 -1 -11 -9 -23 -17 -27 -8 -4 3 -6 25 -4 34
3 40 7 40 26 0 13 6 25 14 28 9 3 12 0 8 -11 -4 -11 0 -13 14 -10 11 3 19 0
19 -6 0 -7 5 -9 11 -5 6 3 8 17 5 30 -4 14 -2 24 4 24 5 0 10 -5 10 -11z
m-330 -19 c0 -5 -4 -10 -10 -10 -5 0 -10 5 -10 10 0 6 5 10 10 10 6 0 10 -4
10 -10z m144 -21 c-3 -5 -10 -7 -15 -3 -5 3 -7 10 -3 15 3 5 10 7 15 3 5 -3 7
-10 3 -15z m-1809 1 c3 -5 2 -10 -4 -10 -5 0 -13 5 -16 10 -3 6 -2 10 4 10 5
0 13 -4 16 -10z m1195 -30 c0 -5 -2 -10 -4 -10 -3 0 -8 5 -11 10 -3 6 -1 10 4
10 6 0 11 -4 11 -10z m65 -27 c-15 -23 -15 -26 1 -44 21 -23 37 -24 54 -4 10
13 10 19 -4 33 -21 24 -10 35 18 17 22 -14 74 -14 165 1 31 5 33 4 22 -10 -8
-9 -10 -16 -5 -16 5 -1 -4 -7 -21 -15 -16 -7 -24 -14 -16 -14 11 -1 10 -6 -5
-19 -17 -17 -20 -17 -32 -3 -12 14 -13 12 -9 -11 5 -35 -10 -36 -25 -3 -11 25
-28 34 -28 15 0 -6 -11 -3 -24 5 -21 14 -24 14 -29 0 -8 -19 -31 -19 -51 1
-15 14 -16 14 -16 -3 0 -10 -7 -27 -15 -37 -8 -11 -15 -32 -15 -48 0 -44 -11
-39 -123 54 -29 25 -30 27 -10 28 12 0 25 5 28 10 4 6 11 8 16 5 8 -6 13 8 10
28 -1 5 18 7 41 5 41 -3 43 -2 43 23 -1 21 4 27 23 27 22 0 22 -1 7 -25z
m1148 10 c4 -2 7 -9 7 -16 0 -8 -3 -8 -11 0 -6 6 -17 9 -24 7 -6 -3 -18 2 -25
11 -12 15 -10 15 16 9 16 -4 32 -9 37 -11z m126 -9 c6 4 15 -3 22 -16 9 -16 9
-23 0 -26 -6 -2 -11 -14 -11 -27 0 -29 -16 -41 -34 -26 -7 6 -15 8 -18 6 -3
-3 -15 -7 -27 -10 -14 -3 -21 1 -21 12 0 13 3 13 15 3 12 -10 15 -10 15 4 0 9
-5 16 -11 16 -5 0 -7 5 -4 10 4 7 14 7 28 0 20 -9 20 -9 3 2 -10 7 -30 23 -44
36 -24 21 -24 22 -4 22 11 0 24 4 27 10 4 6 15 4 30 -6 13 -9 29 -13 34 -10z
m-1369 -4 c0 -5 -2 -10 -4 -10 -3 0 -8 5 -11 10 -3 6 -1 10 4 10 6 0 11 -4 11
-10z m106 -18 c-18 -16 -18 -16 -6 6 6 13 14 21 18 18 3 -4 -2 -14 -12 -24z
m-1376 -12 c12 19 40 22 33 4 -3 -8 -9 -11 -14 -8 -5 3 -6 -1 -3 -9 3 -9 -3
-16 -15 -20 -12 -3 -21 -1 -21 3 0 4 -9 6 -19 3 -16 -4 -19 -1 -14 18 4 13 8
18 11 11 6 -18 22 -15 23 6 1 15 2 14 6 -2 4 -14 7 -16 13 -6z m2798 8 c-3 -7
-9 -13 -15 -13 -5 0 -17 -8 -27 -17 -32 -33 -61 -11 -30 23 19 21 78 27 72 7z
m-104 -23 c-4 -8 -8 -15 -10 -15 -2 0 -4 7 -4 15 0 8 4 15 10 15 5 0 7 -7 4
-15z m201 1 c59 -15 58 -15 45 -32 -11 -12 -10 -17 8 -29 l20 -15 -22 -42
c-27 -51 -43 -58 -52 -23 -3 14 -15 32 -27 40 -17 12 -18 17 -7 30 10 12 10
15 -4 15 -9 0 -16 7 -16 15 0 7 -7 18 -16 23 -9 5 -14 14 -10 20 7 11 31 11
81 -2z m-394 -19 c-1 -12 -15 -9 -19 4 -3 6 1 10 8 8 6 -3 11 -8 11 -12z m-66
-7 c-3 -5 -10 -10 -16 -10 -5 0 -9 5 -9 10 0 6 7 10 16 10 8 0 12 -4 9 -10z
m-979 -15 c14 -13 13 -15 -5 -15 -12 0 -21 6 -21 15 0 8 3 15 6 15 3 0 12 -7
20 -15z m-329 -1 c-3 -3 -12 -4 -19 -1 -8 3 -5 6 6 6 11 1 17 -2 13 -5z m498
-14 c-3 -4 1 -10 7 -13 9 -3 8 -10 -6 -26 -27 -29 -43 -12 -25 27 7 17 17 28
21 26 5 -3 6 -9 3 -14z m1193 8 c-3 -7 -13 -15 -23 -16 -15 -4 -16 -2 -4 12
17 19 32 21 27 4z m262 -13 c0 -8 -2 -15 -4 -15 -2 0 -6 7 -10 15 -3 8 -1 15
4 15 6 0 10 -7 10 -15z m-3037 -52 c5 -26 4 -26 -9 -9 -7 10 -11 23 -8 27 8
14 11 11 17 -18z m607 3 c0 -3 -4 -8 -10 -11 -5 -3 -10 -1 -10 4 0 6 5 11 10
11 6 0 10 -2 10 -4z m176 -8 c-1 -14 5 -18 29 -18 8 0 15 7 15 16 0 13 3 14
15 4 11 -9 12 -16 3 -30 -7 -10 -15 -17 -19 -14 -4 2 -4 -8 0 -24 l9 -29 -57
1 c-45 1 -56 4 -59 19 -2 9 -10 17 -19 17 -13 0 -13 -2 -2 -17 12 -15 12 -16
-3 -10 -13 4 -18 1 -18 -10 0 -14 -2 -15 -12 -4 -10 11 -10 14 0 18 6 3 12 11
12 19 0 9 -5 12 -12 8 -7 -4 -3 3 10 15 22 22 77 50 98 51 7 0 11 -6 10 -12z
m2444 -7 c3 -3 24 -16 46 -28 31 -16 44 -19 53 -10 8 8 11 7 11 -6 0 -14 7
-16 34 -11 28 4 34 2 32 -13 -1 -12 5 -17 17 -15 19 3 24 -14 5 -21 -10 -4 28
-27 52 -31 17 -4 28 -19 24 -31 -4 -9 1 -18 11 -21 32 -13 66 -55 60 -74 -5
-15 0 -19 22 -22 18 -2 27 -8 26 -18 -3 -16 25 -22 107 -24 27 -1 50 -7 57
-16 7 -8 13 -10 13 -5 1 25 20 -23 19 -50 0 -30 0 -30 -10 -5 -7 18 -12 21
-18 12 -5 -9 -18 -11 -37 -7 -22 5 -25 4 -14 -4 8 -6 23 -11 33 -11 10 0 15
-4 12 -10 -3 -5 -3 -16 2 -22 4 -7 8 -28 8 -45 0 -40 -21 -44 -37 -7 -10 22
-16 25 -47 20 -32 -6 -34 -5 -18 8 21 16 13 46 -13 46 -12 0 -20 9 -22 23 -2
13 -10 22 -19 21 -12 -1 -16 5 -14 22 3 28 -10 32 -24 7 -7 -14 -12 -15 -24
-4 -9 7 -13 19 -10 27 6 16 2 17 -21 8 -9 -3 -16 -13 -16 -21 0 -8 -5 -11 -10
-8 -8 5 -8 11 0 20 6 7 7 20 4 30 -4 10 -1 20 6 25 25 15 -11 37 -53 32 -28
-3 -37 -9 -37 -23 0 -27 -18 -24 -22 4 -2 14 -9 21 -19 19 -11 -1 -16 4 -15
15 1 12 -7 19 -25 21 -17 2 -29 11 -32 23 -5 17 -8 18 -31 8 -31 -14 -34 -29
-7 -29 22 0 51 -25 50 -43 0 -9 -2 -8 -6 1 -2 6 -15 12 -27 12 -28 0 -46 18
-46 45 0 12 -5 26 -12 33 -9 9 -9 15 0 24 7 7 12 16 12 20 0 13 -28 9 -32 -4
-6 -16 -28 0 -28 20 0 10 -9 23 -20 29 -17 11 -19 10 -14 -5 5 -16 5 -16 -6 1
-6 9 -8 22 -5 27 3 6 1 10 -5 10 -6 0 -13 -7 -16 -15 -6 -14 -8 -13 -20 2 -18
25 -17 28 9 30 12 1 26 8 31 16 8 13 65 12 76 -2z m-3180 0 c0 -6 -4 -13 -10
-16 -5 -3 -10 1 -10 9 0 9 5 16 10 16 6 0 10 -4 10 -9z m1490 -10 c0 -6 -4
-13 -10 -16 -5 -3 -10 1 -10 9 0 9 5 16 10 16 6 0 10 -4 10 -9z m210 -37 c0
-2 -3 -3 -7 -3 -19 3 -23 -2 -14 -19 14 -26 -23 -50 -38 -24 -10 16 -10 16
-11 0 0 -26 -15 -29 -38 -8 -12 11 -29 20 -38 20 -16 0 -16 1 0 19 10 11 13
21 7 25 -5 4 -12 2 -16 -4 -3 -5 -13 -10 -21 -10 -14 0 -14 2 0 15 17 17 38
19 52 6 5 -5 27 -12 49 -16 35 -6 38 -5 23 8 -10 8 -15 16 -12 19 5 6 64 -20
64 -28z m620 21 c0 -8 5 -15 10 -15 6 0 10 3 10 8 0 4 18 8 40 8 22 1 37 -3
34 -7 -3 -5 -9 -7 -14 -4 -4 3 -13 -2 -20 -10 -7 -8 -23 -15 -37 -15 -15 0
-22 -4 -18 -11 4 -6 14 -8 24 -4 15 6 15 5 0 -11 -13 -12 -21 -14 -35 -5 -11
6 -14 11 -9 11 6 0 3 5 -5 10 -13 9 -13 11 0 20 13 8 12 10 -3 10 -15 0 -16 2
-5 15 17 19 28 19 28 0z m350 -6 c0 -6 -4 -7 -10 -4 -5 3 -10 11 -10 16 0 6 5
7 10 4 6 -3 10 -11 10 -16z m-2700 1 c0 -5 -5 -10 -11 -10 -5 0 -7 5 -4 10 3
6 8 10 11 10 2 0 4 -4 4 -10z m2824 -5 c-4 -8 -10 -12 -15 -9 -14 8 -10 24 6
24 9 0 12 -6 9 -15z m-529 -5 c3 -5 1 -10 -4 -10 -6 0 -11 5 -11 10 0 6 2 10
4 10 3 0 8 -4 11 -10z m-1402 -30 c-3 -11 -13 -25 -22 -32 -15 -12 -15 -11 -1
6 11 14 12 20 3 23 -7 2 -10 10 -7 18 8 21 33 7 27 -15z m532 -2 c5 -5 4 -5
-62 -11 -32 -3 -40 -1 -36 10 4 9 18 12 49 10 25 -2 47 -6 49 -9z m72 6 c-3
-3 -12 -4 -19 -1 -8 3 -5 6 6 6 11 1 17 -2 13 -5z m-652 -44 c-3 -5 -11 -10
-16 -10 -6 0 -7 5 -4 10 3 6 11 10 16 10 6 0 7 -4 4 -10z m2630 -8 c-3 -3 -11
0 -18 7 -9 10 -8 11 6 5 10 -3 15 -9 12 -12z m-1115 -12 c0 -5 -4 -10 -9 -10
-6 0 -13 5 -16 10 -3 6 1 10 9 10 9 0 16 -4 16 -10z m26 -55 c2 -20 -1 -23
-11 -15 -8 6 -11 18 -8 26 8 22 18 17 19 -11z m389 6 c3 -5 1 -12 -5 -16 -6
-4 -8 -11 -5 -16 4 -5 -1 -9 -11 -9 -14 0 -14 3 -4 15 16 20 5 32 -14 16 -9
-7 -16 -8 -20 -2 -4 5 2 12 11 14 30 8 42 7 48 -2z m795 5 c0 -11 -19 -15 -25
-6 -3 5 1 10 9 10 9 0 16 -2 16 -4z m-2800 -16 c0 -5 -5 -10 -11 -10 -5 0 -7
5 -4 10 3 6 8 10 11 10 2 0 4 -4 4 -10z m1415 0 c3 -5 1 -10 -4 -10 -6 0 -11
5 -11 10 0 6 2 10 4 10 3 0 8 -4 11 -10z m-3245 -53 c17 -15 19 -21 10 -33
-10 -11 -10 -17 0 -29 10 -12 7 -14 -19 -10 -33 4 -40 -5 -16 -25 11 -9 12
-15 2 -25 -7 -7 -14 -11 -16 -9 -2 2 -12 -1 -22 -7 -25 -13 -61 9 -53 33 3 10
1 18 -5 18 -6 0 -11 -7 -11 -15 0 -8 -4 -15 -9 -15 -16 0 -31 27 -25 44 3 9 1
16 -5 16 -6 0 -11 4 -11 8 0 5 17 8 37 6 43 -2 65 4 57 18 -4 6 2 7 16 3 16
-5 20 -4 15 4 -4 7 -4 23 -1 37 6 21 9 23 20 12 8 -7 24 -21 36 -31z m61 -5
c-5 -2 -20 2 -32 8 -17 10 -19 14 -8 21 9 5 20 2 32 -9 10 -9 14 -18 8 -20z
m1399 28 c0 -5 -4 -10 -9 -10 -6 0 -13 5 -16 10 -3 6 1 10 9 10 9 0 16 -4 16
-10z m2835 -20 c-5 -8 -11 -8 -17 -2 -6 6 -7 16 -3 22 5 8 11 8 17 2 6 -6 7
-16 3 -22z m-2870 10 c3 -6 -1 -7 -9 -4 -18 7 -21 14 -7 14 6 0 13 -4 16 -10z
m635 0 c0 -5 -5 -10 -11 -10 -5 0 -7 5 -4 10 3 6 8 10 11 10 2 0 4 -4 4 -10z
m26 -5 c-3 -9 0 -15 10 -15 8 0 17 -7 20 -15 7 -17 34 -21 34 -5 0 6 -4 10
-10 10 -5 0 -10 10 -10 23 0 19 3 17 17 -11 9 -20 21 -31 29 -28 7 3 16 1 19
-4 4 -6 -1 -10 -10 -10 -8 0 -18 -7 -21 -15 -7 -18 -25 -20 -21 -2 1 7 -7 11
-20 9 -18 -3 -23 2 -23 17 0 12 -4 21 -10 21 -5 0 -10 -7 -10 -15 0 -20 -24
-19 -41 2 -13 15 -12 15 9 4 21 -11 22 -10 22 19 0 16 5 30 11 30 6 0 9 -7 5
-15z m-546 -22 c0 -19 3 -24 9 -15 7 11 9 11 14 -1 8 -21 -6 -38 -23 -27 -20
13 -60 13 -60 0 0 -5 -12 -10 -27 -10 -24 0 -28 4 -29 30 -1 16 3 27 7 24 5
-3 9 -11 9 -19 0 -9 8 -11 23 -8 23 6 67 33 54 33 -5 0 -5 5 -2 10 12 19 25
10 25 -17z m1650 -3 c0 -5 -4 -10 -10 -10 -5 0 -10 5 -10 10 0 6 5 10 10 10 6
0 10 -4 10 -10z m33 -20 c3 -11 1 -20 -4 -20 -5 0 -9 2 -9 4 0 2 -3 11 -6 20
-3 9 -2 16 4 16 5 0 12 -9 15 -20z m1092 10 c-3 -5 -10 -10 -16 -10 -5 0 -9 5
-9 10 0 6 7 10 16 10 8 0 12 -4 9 -10z m95 -12 c0 -12 -3 -18 -7 -14 -11 10
-12 36 -2 36 5 0 9 -10 9 -22z m-4613 6 c-3 -3 -12 -4 -19 -1 -8 3 -5 6 6 6
11 1 17 -2 13 -5z m1607 -16 c-1 -13 -3 -24 -3 -25 -1 -2 -9 5 -19 15 -12 11
-14 20 -8 24 20 14 33 8 30 -14z m541 -1 c7 -6 0 -7 -20 -3 -16 4 -34 12 -40
17 -7 7 0 8 20 3 17 -3 35 -11 40 -17z m707 1 c-6 -6 -16 -7 -22 -3 -9 6 -9 9
1 16 17 10 34 0 21 -13z m72 -9 c-2 -5 -16 -3 -29 3 -13 6 -22 15 -19 19 2 5
16 3 29 -3 13 -6 22 -15 19 -19z m202 14 c22 -29 16 -43 -16 -43 -16 0 -30 5
-30 10 0 6 -7 10 -15 10 -8 0 -15 4 -15 10 0 5 7 6 17 3 10 -4 14 -2 10 5 -4
6 1 13 10 15 10 3 20 5 22 6 2 0 10 -7 17 -16z m-876 -13 c0 -5 -7 -10 -15
-10 -8 0 -15 5 -15 10 0 6 7 10 15 10 8 0 15 -4 15 -10z m-380 -4 c0 -11 -19
-15 -25 -6 -3 5 1 10 9 10 9 0 16 -2 16 -4z m410 -5 c0 -6 -4 -13 -10 -16 -5
-3 -10 1 -10 9 0 9 5 16 10 16 6 0 10 -4 10 -9z m1960 -7 c0 -12 4 -14 13 -7
17 14 44 12 44 -4 0 -7 -4 -13 -9 -13 -4 0 -8 5 -8 10 0 6 -5 10 -11 10 -6 0
-9 -7 -6 -15 4 -8 2 -17 -3 -20 -6 -4 -10 -1 -10 5 0 6 -8 10 -17 8 -12 -2
-19 4 -21 20 -2 15 2 22 12 22 9 0 16 -7 16 -16z m-2475 -18 c16 -16 10 -26
-16 -26 -24 0 -35 20 -18 31 18 11 18 11 34 -5z m2945 4 c0 -5 -7 -10 -15 -10
-8 0 -15 5 -15 10 0 6 7 10 15 10 8 0 15 -4 15 -10z m-4776 -16 c9 -3 16 -10
16 -16 0 -5 -6 -6 -12 -1 -7 4 -21 6 -32 4 -11 -1 -16 2 -12 8 8 12 18 14 40
5z m5481 -22 c-8 -8 -25 10 -19 20 4 6 9 5 15 -3 4 -7 6 -15 4 -17z m-2270 8
c-3 -5 -12 -10 -18 -10 -7 0 -6 4 3 10 19 12 23 12 15 0z m35 0 c0 -5 -2 -10
-4 -10 -3 0 -8 5 -11 10 -3 6 -1 10 4 10 6 0 11 -4 11 -10z m-849 -17 c13 -16
12 -17 -3 -4 -10 7 -18 15 -18 17 0 8 8 3 21 -13z m3133 -12 c-2 -3 -12 3 -22
13 -16 17 -16 18 5 5 12 -7 20 -15 17 -18z m-3084 15 c0 -2 -7 -7 -16 -10 -8
-3 -12 -2 -9 4 6 10 25 14 25 6z m-455 -26 c-3 -5 -10 -10 -16 -10 -5 0 -9 5
-9 10 0 6 7 10 16 10 8 0 12 -4 9 -10z m-35 -10 c0 -5 -4 -10 -9 -10 -6 0 -13
5 -16 10 -3 6 1 10 9 10 9 0 16 -4 16 -10z m665 0 c3 -5 1 -10 -4 -10 -6 0
-11 5 -11 10 0 6 2 10 4 10 3 0 8 -4 11 -10z m-589 -57 c4 -44 4 -46 -10 -28
-8 11 -12 23 -10 27 3 5 0 8 -5 8 -15 0 -14 23 1 38 16 16 19 11 24 -45z
m1428 42 c-4 -8 -10 -15 -15 -15 -4 0 -6 7 -3 15 4 8 10 15 15 15 4 0 6 -7 3
-15z m1463 0 c5 -4 0 -5 -9 -2 -10 3 -20 2 -23 -3 -9 -15 -45 -12 -45 3 0 14
65 16 77 2z m-371 -18 c8 3 14 -1 14 -11 0 -9 -8 -16 -20 -16 -11 0 -20 2 -20
4 0 2 -3 13 -6 23 -6 14 -4 16 6 6 7 -6 19 -9 26 -6z m-2430 -26 c-13 -14 -14
-20 -5 -23 9 -3 8 -6 -4 -11 -9 -3 -23 0 -31 8 -7 8 -16 11 -20 8 -3 -4 -6 -1
-6 6 0 9 8 11 25 7 18 -5 28 -1 37 13 7 11 14 18 17 16 2 -3 -4 -13 -13 -24z
m2838 17 c-3 -4 -12 -8 -20 -8 -8 0 -13 4 -10 8 3 5 12 9 20 9 8 0 13 -4 10
-9z m-4809 -8 c3 -5 2 -10 -4 -10 -5 0 -13 5 -16 10 -3 6 -2 10 4 10 5 0 13
-4 16 -10z m3272 4 c-3 -3 -12 -4 -19 -1 -8 3 -5 6 6 6 11 1 17 -2 13 -5z
m278 -4 c-3 -5 -10 -10 -16 -10 -5 0 -9 5 -9 10 0 6 7 10 16 10 8 0 12 -4 9
-10z m1470 0 c3 -5 1 -10 -4 -10 -6 0 -11 5 -11 10 0 6 2 10 4 10 3 0 8 -4 11
-10z m-1875 -10 c0 -5 -4 -10 -10 -10 -5 0 -10 5 -10 10 0 6 5 10 10 10 6 0
10 -4 10 -10z m54 -9 c17 -19 17 -19 -3 -14 -12 3 -21 12 -21 19 0 18 4 18 24
-5z m-3417 -33 c-3 -8 -6 -5 -6 6 -1 11 2 17 5 13 3 -3 4 -12 1 -19z m2570
-11 c3 -16 1 -19 -8 -10 -6 6 -18 9 -25 6 -8 -3 -14 0 -14 6 0 6 7 11 15 11 8
0 15 5 15 12 0 19 14 -1 17 -25z m116 20 c-3 -5 -11 -6 -19 -3 -8 3 -14 -1
-14 -9 0 -8 -4 -15 -8 -15 -4 0 -8 8 -8 18 0 13 8 18 27 17 15 0 25 -4 22 -8z
m117 -18 c0 -19 -26 -8 -27 12 -2 17 1 18 13 9 8 -7 14 -16 14 -21z m598 11
c24 -22 31 -40 9 -21 -8 6 -17 8 -20 4 -9 -8 -38 17 -31 28 8 14 18 11 42 -11z
m1639 -12 c-6 -4 -15 -2 -19 5 -4 6 -2 15 5 19 6 4 15 2 19 -5 4 -6 2 -15 -5
-19z m203 28 c0 -3 -4 -8 -10 -11 -5 -3 -10 -1 -10 4 0 6 5 11 10 11 6 0 10
-2 10 -4z m-3993 -12 c-3 -3 -12 -4 -19 -1 -8 3 -5 6 6 6 11 1 17 -2 13 -5z
m815 -26 c-9 -9 -12 -7 -12 12 0 19 3 21 12 12 9 -9 9 -15 0 -24z m-2217 12
c3 -5 1 -10 -4 -10 -6 0 -11 5 -11 10 0 6 2 10 4 10 3 0 8 -4 11 -10z m5286
-5 c24 -13 27 -18 17 -29 -15 -16 -32 -10 -22 6 5 7 2 8 -6 3 -11 -7 -29 9
-30 28 0 10 7 9 41 -8z m169 0 c0 -12 -19 -12 -23 0 -4 9 -1 12 9 8 7 -3 14
-7 14 -8z m-216 -49 c-5 -13 -13 -16 -33 -11 -30 7 -48 22 -38 31 4 4 15 0 25
-9 23 -21 36 -22 29 -3 -7 17 4 29 15 18 5 -5 6 -16 2 -26z m-1284 4 c0 -5 -4
-10 -10 -10 -5 0 -10 5 -10 10 0 6 5 10 10 10 6 0 10 -4 10 -10z m1570 -18 c0
-15 -2 -15 -10 -2 -13 20 -13 33 0 25 6 -3 10 -14 10 -23z m-5310 14 c0 -3 -4
-8 -10 -11 -5 -3 -10 -1 -10 4 0 6 5 11 10 11 6 0 10 -2 10 -4z m4400 -5 c0
-5 -6 -12 -12 -14 -10 -4 -9 -8 2 -16 12 -9 11 -11 -7 -11 -20 0 -21 2 -11 25
11 24 28 34 28 16z m-720 -16 c0 -8 -2 -15 -4 -15 -2 0 -6 7 -10 15 -3 8 -1
15 4 15 6 0 10 -7 10 -15z m155 -13 c-8 -8 -25 10 -19 20 4 6 9 5 15 -3 4 -7
6 -15 4 -17z m1270 -1 c-6 -5 -25 10 -25 20 0 5 6 4 14 -3 8 -7 12 -15 11 -17z
m-3570 0 c-3 -6 -11 -11 -16 -11 -5 0 -4 6 3 14 14 16 24 13 13 -3z m1896 7
c1 -7 1 -17 0 -22 -1 -5 6 -17 15 -27 23 -26 12 -34 -25 -18 -24 11 -28 17
-20 31 5 9 9 21 8 25 -3 15 1 23 11 23 6 0 11 -6 11 -12z m1537 0 c-6 -18 -28
-21 -28 -4 0 9 7 16 16 16 9 0 14 -5 12 -12z m252 8 c0 -11 -19 -15 -25 -6 -3
5 1 10 9 10 9 0 16 -2 16 -4z m-2334 -26 c8 0 14 5 14 10 0 6 5 10 10 10 6 0
10 -10 10 -23 0 -24 31 -57 54 -57 20 0 40 -26 26 -35 -18 -11 -51 6 -61 32
-5 13 -15 23 -22 20 -6 -2 -25 5 -42 17 -16 11 -37 20 -45 18 -8 -1 -4 4 10
12 14 8 27 10 28 5 2 -5 10 -9 18 -9z m493 6 c5 -6 5 -20 0 -31 -7 -18 -8 -18
-8 -2 -1 10 -5 16 -10 13 -14 -9 -41 4 -41 19 0 16 46 17 59 1z m1991 -1 c0
-8 -4 -15 -10 -15 -5 0 -7 7 -4 15 4 8 8 15 10 15 2 0 4 -7 4 -15z m-4518 -62
c-6 -32 -28 -23 -24 10 1 14 -2 28 -8 32 -5 3 -10 11 -10 17 0 5 11 0 23 -12
16 -16 22 -31 19 -47z m79 58 c-9 -6 -10 -11 -3 -15 12 -7 5 -36 -9 -36 -4 0
-6 7 -3 15 7 18 -7 20 -26 3 -11 -10 -11 -9 0 7 18 24 32 35 45 35 6 0 4 -4
-4 -9z m36 -13 c-3 -8 -6 -5 -6 6 -1 11 2 17 5 13 3 -3 4 -12 1 -19z m4155 0
c-7 -7 -12 -8 -12 -2 0 14 12 26 19 19 2 -3 -1 -11 -7 -17z m-2683 3 c10 -6
10 -10 1 -16 -7 -4 -19 0 -28 9 -14 13 -14 16 -2 16 8 0 21 -4 29 -9z m-2649
-10 c0 -6 -4 -13 -10 -16 -5 -3 -10 1 -10 9 0 9 5 16 10 16 6 0 10 -4 10 -9z
m2580 -12 c0 -6 -4 -7 -10 -4 -5 3 -10 11 -10 16 0 6 5 7 10 4 6 -3 10 -11 10
-16z m2050 11 c0 -5 -2 -10 -4 -10 -3 0 -8 5 -11 10 -3 6 -1 10 4 10 6 0 11
-4 11 -10z m865 -31 c4 -5 -1 -9 -9 -9 -17 0 -56 29 -56 41 0 9 58 -19 65 -32z
m-2595 11 c0 -13 -4 -19 -11 -14 -8 5 -10 -1 -7 -20 4 -20 -1 -33 -16 -47
l-21 -20 -12 28 c-7 15 -10 35 -7 44 3 11 -2 15 -15 15 -11 -1 -20 4 -20 9 0
6 6 9 14 7 7 -1 16 1 19 6 2 4 21 9 40 10 31 2 36 -1 36 -18z m-1370 -11 c0
-6 -4 -7 -10 -4 -5 3 -10 11 -10 16 0 6 5 7 10 4 6 -3 10 -11 10 -16z m2620
11 c0 -5 -4 -10 -10 -10 -5 0 -10 5 -10 10 0 6 5 10 10 10 6 0 10 -4 10 -10z
m-1450 -16 c0 -8 -5 -12 -10 -9 -6 4 -8 11 -5 16 9 14 15 11 15 -7z m-1965 -5
c11 -16 1 -19 -13 -3 -7 8 -8 14 -3 14 5 0 13 -5 16 -11z m1915 -5 c0 -9 5
-12 13 -8 9 6 9 4 -1 -8 -15 -19 -70 -29 -75 -14 -5 15 25 46 45 46 10 0 18
-7 18 -16z m-1445 -4 c3 -5 2 -10 -4 -10 -5 0 -13 5 -16 10 -3 6 -2 10 4 10 5
0 13 -4 16 -10z m2979 -21 c10 -19 19 -24 49 -22 20 1 37 -3 37 -8 0 -5 -11
-9 -25 -9 -15 0 -25 -6 -25 -15 0 -8 6 -12 14 -9 8 3 17 1 21 -5 8 -14 -30
-14 -56 -1 -10 6 -19 15 -19 21 0 6 6 7 13 3 14 -9 -10 23 -35 47 -22 20 -23
28 -2 25 8 -1 21 -13 28 -27z m-454 -5 c13 -14 11 -15 -25 -8 -22 4 -42 11
-43 15 -2 5 -8 7 -12 4 -5 -3 -12 0 -15 5 -11 17 77 2 95 -16z m530 10 c0 -8
-5 -12 -10 -9 -6 4 -8 11 -5 16 9 14 15 11 15 -7z m-1480 -15 c0 -5 -4 -9 -8
-9 -5 0 -9 7 -9 15 0 8 4 12 9 9 4 -3 8 -9 8 -15z m2110 6 c-6 -8 -8 -20 -4
-27 5 -10 4 -10 -6 -1 -11 10 -11 15 0 28 7 8 15 15 17 15 3 0 0 -7 -7 -15z
m617 -7 c-3 -8 -6 -5 -6 6 -1 11 2 17 5 13 3 -3 4 -12 1 -19z m-407 8 c0 -2
-7 -9 -15 -16 -12 -10 -15 -10 -15 4 0 9 7 16 15 16 8 0 15 -2 15 -4z m45 -5
c3 -5 1 -12 -5 -16 -6 -4 -8 -11 -5 -16 8 -11 -6 -11 -24 0 -12 8 -12 12 -2
25 15 18 27 20 36 7z m319 -16 c-7 -16 -24 -21 -24 -6 0 8 7 13 27 20 1 1 0
-6 -3 -14z m101 5 c3 -6 -4 -10 -17 -11 -23 0 -23 0 -2 -9 28 -11 40 -30 19
-30 -32 0 -58 43 -32 53 19 8 25 8 32 -3z m199 -5 c3 -8 1 -15 -4 -15 -6 0
-10 7 -10 15 0 8 2 15 4 15 2 0 6 -7 10 -15z m-2474 -51 c57 -53 70 -64 70
-56 0 4 13 -6 28 -23 15 -16 36 -35 47 -41 11 -6 24 -20 30 -32 5 -12 16 -22
23 -22 7 0 10 5 7 10 -3 6 -2 10 2 10 5 0 14 -9 21 -21 9 -14 10 -19 2 -14 -9
6 -9 2 0 -15 10 -18 14 -20 21 -9 6 10 9 10 9 2 0 -18 41 -63 57 -63 7 0 13
-4 13 -8 0 -17 37 -51 63 -57 14 -4 26 -10 25 -14 -3 -10 23 -53 29 -47 8 8
44 -14 38 -23 -8 -14 84 -101 105 -101 11 0 20 -6 20 -14 0 -7 12 -22 27 -31
56 -37 91 -76 89 -101 0 -15 -7 -24 -18 -24 -9 0 -25 -3 -35 -6 -10 -3 -7 2 7
10 l25 15 -30 1 c-20 0 -26 3 -17 9 11 6 9 13 -10 32 -13 13 -36 30 -51 38
-15 8 -27 19 -27 24 0 5 -8 3 -17 -4 -11 -9 -14 -10 -9 -2 4 8 -2 22 -15 35
-15 16 -20 18 -16 7 4 -11 -3 -20 -19 -28 -20 -9 -24 -8 -24 5 0 8 5 12 10 9
6 -3 10 1 10 9 0 9 -7 16 -15 16 -8 0 -15 5 -15 10 0 6 5 10 10 10 16 0 12 15
-10 36 -11 10 -29 27 -40 38 -13 13 -27 17 -47 13 -16 -3 -35 -2 -43 4 -12 7
-10 9 7 9 16 0 20 5 16 20 -3 11 -10 23 -16 27 -6 4 -8 0 -4 -10 5 -13 0 -17
-20 -17 -25 0 -26 0 -8 20 15 16 15 20 3 20 -8 0 -39 28 -69 61 -30 34 -60 68
-67 75 -7 7 -11 17 -10 21 2 4 -11 13 -29 18 -17 6 -40 18 -51 28 -10 9 -24
17 -30 17 -6 0 -15 6 -19 13 -4 8 -17 19 -28 25 -11 6 -14 12 -7 12 18 0 15
20 -4 20 -9 0 -14 6 -11 13 3 8 1 20 -4 28 -7 12 -13 11 -39 -4 -28 -17 -31
-17 -37 -2 -7 19 13 36 34 28 7 -3 13 0 13 7 0 6 -4 9 -9 5 -6 -3 -15 4 -21
15 -11 21 -11 21 22 5 18 -10 44 -28 58 -41z m1475 46 c3 -5 2 -10 -4 -10 -5
0 -13 5 -16 10 -3 6 -2 10 4 10 5 0 13 -4 16 -10z m-965 -30 c0 -5 -4 -10 -10
-10 -5 0 -10 5 -10 10 0 6 5 10 10 10 6 0 10 -4 10 -10z m-3069 -10 c12 -7 25
-7 37 -1 14 8 18 6 19 -10 1 -10 -2 -19 -7 -19 -5 0 -7 -8 -3 -17 5 -15 3 -16
-8 -5 -19 18 -26 15 -34 -15 -5 -20 -9 -23 -15 -13 -7 11 -11 11 -24 1 -9 -8
-16 -10 -16 -5 0 5 -3 20 -7 33 -4 17 -3 22 5 17 8 -5 12 2 12 18 0 28 10 32
41 16z m2159 1 c0 -5 8 -12 18 -14 13 -4 13 -5 -4 -6 -12 0 -27 6 -34 14 -10
12 -10 15 4 15 9 0 16 -4 16 -9z m1015 -11 c-3 -11 -2 -20 2 -20 5 0 10 -16
11 -34 2 -31 0 -34 -19 -31 -31 6 -32 10 -18 52 7 21 12 41 11 46 -1 4 3 7 9
7 6 0 8 -9 4 -20z m825 0 c0 -5 -2 -10 -4 -10 -3 0 -8 5 -11 10 -3 6 -1 10 4
10 6 0 11 -4 11 -10z m-4090 -24 c-6 -8 -18 -12 -27 -9 -12 5 -12 7 -1 14 7 5
19 9 27 9 11 0 11 -3 1 -14z m2105 -1 l20 -7 -20 -8 c-12 -4 -23 -3 -27 4 -5
7 -8 4 -8 -8 0 -12 5 -16 15 -12 8 3 18 -1 22 -8 11 -18 50 -29 58 -16 3 5 11
10 18 10 8 0 8 -3 0 -11 -13 -13 -6 -39 9 -39 5 0 6 5 2 11 -4 8 0 8 15 0 17
-9 20 -9 15 2 -3 8 2 17 10 20 16 6 21 -8 17 -42 -2 -7 0 -20 4 -29 5 -13 8
-14 14 -3 5 7 14 10 20 6 9 -5 7 -11 -6 -21 -17 -13 -17 -13 5 -14 13 0 21 -4
17 -9 -11 -18 36 -40 72 -34 32 5 35 4 29 -15 -6 -17 -3 -19 14 -15 11 3 20 0
20 -6 0 -6 4 -11 9 -11 11 0 61 -44 61 -54 0 -3 -10 -6 -22 -6 -12 0 -18 3
-15 7 4 3 2 12 -4 20 -9 10 -15 11 -26 1 -11 -9 -13 -9 -11 1 2 6 -10 19 -26
29 -25 15 -29 15 -38 2 -9 -14 -16 -13 -58 7 -26 12 -50 28 -53 36 -2 7 -32
26 -66 42 -33 17 -61 33 -61 38 0 4 -7 7 -15 7 -7 0 -19 8 -24 18 -6 10 -11
12 -11 4 0 -9 -13 -6 -42 9 -24 12 -37 24 -30 26 6 3 12 11 12 19 0 8 7 14 15
14 18 0 20 30 3 31 -7 1 -2 4 12 8 14 5 27 7 30 6 3 -1 14 -5 25 -10z m-1274
-23 c-8 -3 -6 -9 6 -18 17 -13 17 -13 1 -14 -10 0 -18 -5 -18 -11 0 -5 5 -7
10 -4 6 3 10 0 10 -8 0 -20 -32 -17 -38 5 -5 20 -17 24 -27 8 -12 -20 -33 -9
-38 20 -5 23 -10 28 -24 23 -15 -5 -16 -3 -6 7 10 11 17 11 37 1 27 -15 86 -6
87 12 0 7 3 5 6 -2 3 -8 1 -17 -6 -19z m339 13 c0 -8 -2 -15 -4 -15 -2 0 -6 7
-10 15 -3 8 -1 15 4 15 6 0 10 -7 10 -15z m1020 -10 c7 -9 8 -15 2 -15 -5 0
-12 7 -16 15 -3 8 -4 15 -2 15 2 0 9 -7 16 -15z m2255 5 c3 -5 1 -10 -4 -10
-6 0 -11 5 -11 10 0 6 2 10 4 10 3 0 8 -4 11 -10z m-4889 -45 c29 -29 21 -48
-13 -32 -21 9 -27 9 -31 -1 -3 -9 -7 -8 -18 2 -25 25 -15 43 21 36 6 -1 4 4
-2 11 -7 7 -13 17 -13 22 0 10 24 -6 56 -38z m644 35 c0 -5 -5 -10 -11 -10 -5
0 -7 5 -4 10 3 6 8 10 11 10 2 0 4 -4 4 -10z m3393 -10 c6 -22 0 -25 -23 -10
-13 9 -13 11 0 20 8 5 16 10 16 10 1 0 4 -9 7 -20z m920 7 c6 -16 -30 -20 -39
-5 -4 6 -2 8 4 4 6 -3 13 -2 17 4 8 13 12 13 18 -3z m442 3 c3 -5 1 -10 -4
-10 -6 0 -11 5 -11 10 0 6 2 10 4 10 3 0 8 -4 11 -10z m-5475 -10 c0 -5 -4
-10 -10 -10 -5 0 -10 5 -10 10 0 6 5 10 10 10 6 0 10 -4 10 -10z m373 4 c3 -3
3 -13 0 -21 -5 -12 -7 -12 -14 -1 -15 23 -4 40 14 22z m401 -9 c-4 -8 -11 -15
-16 -15 -6 0 -5 6 2 15 7 8 14 15 16 15 2 0 1 -7 -2 -15z m96 0 c0 -8 -2 -15
-4 -15 -2 0 -6 7 -10 15 -3 8 -1 15 4 15 6 0 10 -7 10 -15z m4530 -6 c0 -6 -4
-7 -10 -4 -5 3 -10 11 -10 16 0 6 5 7 10 4 6 -3 10 -11 10 -16z m-1526 5 c17
-6 23 -34 8 -34 -5 0 -17 9 -27 20 -18 20 -11 25 19 14z m1226 2 c0 -3 -4 -8
-10 -11 -5 -3 -10 -1 -10 4 0 6 5 11 10 11 6 0 10 -2 10 -4z m-4593 -12 c-3
-3 -12 -4 -19 -1 -8 3 -5 6 6 6 11 1 17 -2 13 -5z m1973 -12 c0 -12 -3 -12
-15 -2 -8 7 -15 13 -15 15 0 1 7 2 15 2 8 0 15 -7 15 -15z m2831 -4 c11 -11
17 -23 14 -26 -6 -6 -45 28 -45 40 0 14 12 9 31 -14z m-2387 -3 c-4 -8 -7 -15
-9 -15 -2 0 -5 7 -9 15 -3 9 0 15 9 15 9 0 12 -6 9 -15z m-2034 -16 c0 -5 -4
-9 -10 -9 -5 0 -10 7 -10 16 0 8 5 12 10 9 6 -3 10 -10 10 -16z m3260 11 c0
-5 -2 -10 -4 -10 -3 0 -8 5 -11 10 -3 6 -1 10 4 10 6 0 11 -4 11 -10z m-2360
-19 c0 -5 -9 -11 -21 -14 -16 -4 -18 -3 -8 9 13 16 29 19 29 5z m4131 -24 c-1
-4 -1 -10 -1 -14 0 -5 -11 -9 -24 -9 -17 -1 -23 3 -21 15 2 9 4 19 4 23 1 4
10 4 22 0 11 -5 20 -11 20 -15z m-5104 -19 c-3 -8 -6 -5 -6 6 -1 11 2 17 5 13
3 -3 4 -12 1 -19z m1398 12 c3 -5 -1 -10 -10 -10 -9 0 -13 5 -10 10 3 6 8 10
10 10 2 0 7 -4 10 -10z m803 -15 c-3 -3 -9 2 -12 12 -6 14 -5 15 5 6 7 -7 10
-15 7 -18z m1092 15 c0 -5 -5 -10 -11 -10 -5 0 -7 5 -4 10 3 6 8 10 11 10 2 0
4 -4 4 -10z m1385 -16 c9 3 11 -2 8 -15 -3 -10 -12 -19 -20 -19 -8 0 -12 4 -8
9 3 5 1 12 -4 16 -6 3 -7 13 -3 23 6 16 7 16 10 -1 2 -10 10 -16 17 -13z
m-4990 -25 c-7 -20 -8 -21 -17 -4 -8 12 -7 20 3 26 18 11 22 5 14 -22z m185
10 c0 -5 -4 -9 -10 -9 -5 0 -10 7 -10 16 0 8 5 12 10 9 6 -3 10 -10 10 -16z
m265 12 c3 -5 1 -12 -5 -16 -5 -3 -10 1 -10 9 0 18 6 21 15 7z m65 -1 c0 -5
-5 -10 -11 -10 -5 0 -7 5 -4 10 3 6 8 10 11 10 2 0 4 -4 4 -10z m770 0 c0 -5
-2 -10 -4 -10 -3 0 -8 5 -11 10 -3 6 -1 10 4 10 6 0 11 -4 11 -10z m3777 -17
c-9 -8 -48 8 -42 18 4 5 14 5 26 -2 12 -6 18 -13 16 -16z m-4660 -22 c-5 -2 0
-9 13 -16 12 -7 19 -15 14 -18 -5 -3 -20 3 -33 14 -13 10 -18 19 -12 19 6 0
11 10 12 23 0 21 1 21 8 2 5 -12 4 -22 -2 -24z m529 27 c11 -18 -26 -40 -44
-26 -12 10 -11 14 4 25 22 16 31 16 40 1z m1084 -2 c0 -11 -19 -15 -25 -6 -3
5 1 10 9 10 9 0 16 -2 16 -4z m1805 -14 c-3 -3 -11 0 -18 7 -9 10 -8 11 6 5
10 -3 15 -9 12 -12z m865 14 c0 -2 -7 -7 -16 -10 -8 -3 -12 -2 -9 4 6 10 25
14 25 6z m-4760 -16 c0 -5 -5 -10 -11 -10 -5 0 -7 5 -4 10 3 6 8 10 11 10 2 0
4 -4 4 -10z m1310 6 c0 -3 -4 -8 -10 -11 -5 -3 -10 -1 -10 4 0 6 5 11 10 11 6
0 10 -2 10 -4z m2495 -6 c3 -5 1 -10 -4 -10 -6 0 -11 5 -11 10 0 6 2 10 4 10
3 0 8 -4 11 -10z m-3460 -56 c-7 -8 -19 -14 -26 -14 -7 0 -5 6 6 14 18 13 18
14 -3 25 -12 6 -22 16 -22 22 0 5 13 0 29 -12 25 -18 28 -24 16 -35z m-990 36
c3 -5 1 -10 -4 -10 -6 0 -11 5 -11 10 0 6 2 10 4 10 3 0 8 -4 11 -10z m2460 0
c-3 -5 -10 -10 -16 -10 -5 0 -9 5 -9 10 0 6 7 10 16 10 8 0 12 -4 9 -10z
m-645 -10 c0 -5 -4 -10 -10 -10 -5 0 -10 5 -10 10 0 6 5 10 10 10 6 0 10 -4
10 -10z m1435 0 c-3 -5 -11 -10 -16 -10 -6 0 -7 5 -4 10 3 6 11 10 16 10 6 0
7 -4 4 -10z m2170 0 c3 -5 2 -10 -4 -10 -5 0 -13 5 -16 10 -3 6 -2 10 4 10 5
0 13 -4 16 -10z m-4915 -10 c0 -5 -2 -10 -4 -10 -3 0 -8 5 -11 10 -3 6 -1 10
4 10 6 0 11 -4 11 -10z m815 -21 c-3 -4 -13 -6 -23 -4 -9 2 -23 4 -30 4 -10 1
-10 4 0 15 9 10 19 11 35 3 12 -5 20 -13 18 -18z m1005 25 c0 -10 -28 -34 -41
-34 -8 0 -5 7 6 20 17 19 35 26 35 14z m-1980 -14 c0 -5 -4 -10 -10 -10 -5 0
-10 5 -10 10 0 6 5 10 10 10 6 0 10 -4 10 -10z m590 -7 c0 -3 -7 -3 -15 1 -8
3 -15 1 -15 -4 0 -6 -5 -10 -11 -10 -8 0 -8 4 1 14 10 13 40 12 40 -1z m940
13 c0 -2 -7 -7 -16 -10 -8 -3 -12 -2 -9 4 6 10 25 14 25 6z m1657 -3 c-4 -3
-2 -12 4 -20 12 -14 9 -16 -15 -7 -16 6 -11 34 7 34 6 0 7 -3 4 -7z m-1842
-13 c-3 -5 -12 -10 -18 -10 -7 0 -6 4 3 10 19 12 23 12 15 0z m300 0 c3 -6 -1
-7 -9 -4 -18 7 -21 14 -7 14 6 0 13 -4 16 -10z m916 -19 c-7 -12 -17 -18 -26
-14 -13 4 -12 9 6 24 26 23 35 18 20 -10z m414 20 c3 -5 1 -12 -5 -16 -5 -3
-10 1 -10 9 0 18 6 21 15 7z m83 2 c-9 -2 -19 -16 -23 -31 -4 -20 -12 -28 -29
-30 -23 -2 -23 -1 -8 32 12 27 20 33 46 33 17 0 23 -2 14 -4z m-158 -15 c0 -5
5 -6 11 -2 7 4 10 2 8 -5 -3 -7 -8 -12 -12 -12 -4 1 -14 1 -22 1 -8 0 -15 6
-15 13 0 8 7 14 15 14 8 0 15 -4 15 -9z m-1910 -28 c0 -11 -5 -20 -11 -20 -6
0 -8 7 -5 16 4 12 2 15 -9 10 -8 -3 -15 -1 -15 4 0 6 9 10 20 10 13 0 20 -7
20 -20z m1505 0 c3 -5 4 -10 1 -10 -2 0 -12 -3 -20 -6 -12 -5 -15 -2 -10 10 7
18 20 21 29 6z m215 0 c0 -5 -2 -10 -4 -10 -3 0 -8 5 -11 10 -3 6 -1 10 4 10
6 0 11 -4 11 -10z m-1790 -25 c9 -10 9 -15 1 -15 -6 0 -11 4 -11 9 0 5 -8 12
-17 14 -15 4 -15 5 -2 6 9 0 22 -6 29 -14z m95 -5 c-17 -18 -17 -20 -2 -14 24
9 21 1 -10 -27 -14 -13 -23 -19 -19 -12 3 6 -1 16 -10 21 -14 8 -12 12 11 30
35 28 54 28 30 2z m3397 -42 c-6 -6 -22 -8 -35 -4 -20 5 -23 11 -20 31 l5 25
30 -21 c20 -14 26 -25 20 -31z m188 5 c-11 -17 -11 -17 -6 0 3 10 6 24 7 30 0
9 2 9 5 0 3 -7 0 -20 -6 -30z m1121 14 c-10 -9 -11 -8 -5 6 3 10 9 15 12 12 3
-3 0 -11 -7 -18z m-801 -1 c0 -9 -8 -12 -25 -8 -28 5 -24 22 6 22 10 0 19 -6
19 -14z m-1855 -34 c-8 -9 -25 20 -18 31 3 5 10 2 15 -7 6 -10 7 -20 3 -24z
m239 22 c9 -24 2 -26 -12 -4 -7 11 -8 20 -3 20 5 0 12 -7 15 -16z m921 -3 c3
-5 1 -12 -5 -16 -5 -3 -10 1 -10 9 0 18 6 21 15 7z m325 -1 c0 -5 -5 -10 -11
-10 -5 0 -7 5 -4 10 3 6 8 10 11 10 2 0 4 -4 4 -10z m-1685 -10 c3 -6 -1 -7
-9 -4 -18 7 -21 14 -7 14 6 0 13 -4 16 -10z m2100 0 c3 -6 -1 -7 -9 -4 -18 7
-21 14 -7 14 6 0 13 -4 16 -10z m151 -17 c-7 -7 -26 7 -26 19 0 6 6 6 15 -2 9
-7 13 -15 11 -17z m-1953 2 c3 -15 -38 -18 -51 -3 -8 10 -4 13 19 13 16 0 30
-4 32 -10z m57 -3 c0 -4 -9 -8 -19 -8 -11 0 -17 4 -15 8 3 4 12 8 20 8 8 0 14
-4 14 -8z m1240 -2 c10 -6 11 -10 3 -10 -7 0 -14 -10 -14 -22 -1 -17 -2 -19
-6 -5 -2 9 -9 17 -14 17 -5 0 -9 7 -9 15 0 17 18 19 40 5z m-380 -10 c0 -5 -2
-10 -4 -10 -3 0 -8 5 -11 10 -3 6 -1 10 4 10 6 0 11 -4 11 -10z m-3080 -40 c0
-5 -5 -10 -11 -10 -5 0 -7 5 -4 10 3 6 8 10 11 10 2 0 4 -4 4 -10z m50 0 c9
-6 17 -5 22 3 5 9 12 8 24 -5 18 -17 10 -42 -11 -34 -7 2 -18 -1 -24 -7 -8 -8
-15 -6 -26 9 -26 34 -17 55 15 34z m2385 -9 c-3 -6 -11 -11 -17 -11 -6 0 -6 6
2 15 14 17 26 13 15 -4z m-3262 -11 c-3 -11 -9 -20 -14 -20 -10 0 -12 24 -2
33 13 13 21 7 16 -13z m5421 -11 c-3 -5 -14 -5 -25 1 -26 14 -24 18 6 12 14
-2 22 -8 19 -13z m-4654 -19 c13 -8 13 -10 -2 -10 -9 0 -20 5 -23 10 -8 13 5
13 25 0z m3628 -2 c20 -20 14 -33 -7 -14 -17 15 -19 15 -32 -1 -12 -15 -12
-16 5 -10 15 6 17 5 7 -7 -7 -8 -21 -12 -33 -8 -21 5 -20 6 8 29 34 27 36 27
52 11z m-1833 -19 c-4 -5 -13 -9 -22 -9 -13 0 -13 3 -3 15 13 15 35 11 25 -6z
m748 14 c-8 -3 -11 -15 -8 -31 3 -15 2 -21 -1 -14 -3 6 -13 12 -21 12 -14 0
-14 3 2 20 10 11 23 20 29 19 6 0 6 -3 -1 -6z m1137 -3 c0 -5 -2 -10 -4 -10
-3 0 -8 5 -11 10 -3 6 -1 10 4 10 6 0 11 -4 11 -10z m-3487 -14 c9 -7 17 -19
17 -27 0 -10 -4 -9 -16 3 -12 12 -24 14 -45 8 -34 -10 -38 1 -6 16 30 15 29
15 50 0z m4442 4 c3 -5 -1 -10 -9 -10 -9 0 -16 5 -16 10 0 6 4 10 9 10 6 0 13
-4 16 -10z m-5282 -9 c-4 -3 -10 -10 -14 -14 -3 -4 -11 -2 -17 5 -8 10 -5 13
15 14 13 1 21 -1 16 -5z m5182 -1 c3 -5 2 -10 -4 -10 -5 0 -13 5 -16 10 -3 6
-2 10 4 10 5 0 13 -4 16 -10z m-2710 -10 c-3 -5 -11 -10 -16 -10 -6 0 -7 5 -4
10 3 6 11 10 16 10 6 0 7 -4 4 -10z m-2291 -49 c-2 -2 -10 1 -18 8 -8 7 -25 9
-42 5 -19 -5 -25 -4 -20 5 4 6 14 11 22 11 8 0 14 5 14 10 0 6 11 0 24 -12 13
-13 22 -25 20 -27z m3646 39 c0 -5 -2 -10 -4 -10 -3 0 -8 5 -11 10 -3 6 -1 10
4 10 6 0 11 -4 11 -10z m37 4 c-3 -3 -12 -4 -19 -1 -8 3 -5 6 6 6 11 1 17 -2
13 -5z m1116 -8 c9 -7 17 -17 17 -21 0 -5 -8 -1 -17 7 -10 9 -25 18 -33 21
-13 5 -13 5 0 6 8 0 23 -6 33 -13z m-65 -31 c-6 -14 -13 -23 -16 -21 -7 7 9
46 18 46 5 0 4 -11 -2 -25z m-1438 -5 c0 -5 -4 -10 -9 -10 -6 0 -13 5 -16 10
-3 6 1 10 9 10 9 0 16 -4 16 -10z m70 -11 c0 -6 -4 -7 -10 -4 -5 3 -10 11 -10
16 0 6 5 7 10 4 6 -3 10 -11 10 -16z m1045 11 c-3 -5 -12 -10 -18 -10 -7 0 -6
4 3 10 19 12 23 12 15 0z m-196 -52 c1 -10 -5 -15 -16 -12 -15 3 -79 11 -118
14 -5 0 1 6 15 14 19 10 29 10 40 1 9 -7 27 -9 45 -5 25 6 27 8 12 15 -15 6
-16 10 -5 16 14 9 26 -11 27 -43z m1366 42 c3 -5 1 -10 -4 -10 -6 0 -11 5 -11
10 0 6 2 10 4 10 3 0 8 -4 11 -10z m-3175 -10 c0 -5 -2 -10 -4 -10 -3 0 -8 5
-11 10 -3 6 -1 10 4 10 6 0 11 -4 11 -10z m1130 6 c0 -3 -4 -8 -10 -11 -5 -3
-10 -1 -10 4 0 6 5 11 10 11 6 0 10 -2 10 -4z m-3710 -10 c0 -3 -4 -8 -10 -11
-5 -3 -10 -1 -10 4 0 6 5 11 10 11 6 0 10 -2 10 -4z m3977 -7 c11 -11 6 -49
-7 -49 -4 0 -10 7 -14 15 -3 8 0 15 6 15 7 0 6 5 -2 15 -14 17 0 21 17 4z
m-3860 -45 c-9 -9 -28 6 -21 18 4 6 10 6 17 -1 6 -6 8 -13 4 -17z m56 -2 c-2
-10 -13 -18 -24 -18 -19 0 -18 1 3 18 13 10 24 18 25 18 0 0 -1 -8 -4 -18z
m92 8 c3 -5 -1 -10 -9 -10 -9 0 -16 5 -16 10 0 6 4 10 9 10 6 0 13 -4 16 -10z
m645 -15 c0 -2 -6 -14 -13 -28 -10 -20 -17 -23 -30 -15 -9 5 -23 6 -30 2 -6
-4 -2 3 11 15 12 12 22 26 22 30 0 5 9 7 20 4 11 -3 20 -7 20 -8z m3520 5 c0
-5 -2 -10 -4 -10 -3 0 -8 5 -11 10 -3 6 -1 10 4 10 6 0 11 -4 11 -10z m-1073
-23 c-2 -7 2 -18 10 -25 18 -19 17 -38 -2 -22 -8 7 -15 9 -15 4 0 -5 -4 -2
-10 6 -5 9 -5 19 1 27 6 7 7 18 3 24 -4 8 -3 9 5 5 7 -4 10 -13 8 -19z m2023
-22 c0 -5 -5 -3 -10 5 -5 8 -10 20 -10 25 0 6 5 3 10 -5 5 -8 10 -19 10 -25z
m-2085 -3 c-3 -3 -11 0 -18 7 -9 10 -8 11 6 5 10 -3 15 -9 12 -12z m365 -2 c0
-5 -7 -10 -15 -10 -8 0 -15 5 -15 10 0 6 7 10 15 10 8 0 15 -4 15 -10z m655 0
c3 -5 -1 -10 -9 -10 -8 0 -18 5 -21 10 -3 6 1 10 9 10 8 0 18 -4 21 -10z
m-225 -7 c0 -5 -11 -18 -24 -31 -14 -13 -23 -17 -22 -9 3 25 46 62 46 40z
m-4072 -28 c-3 -3 -9 2 -12 12 -6 14 -5 15 5 6 7 -7 10 -15 7 -18z m5652 16
c0 -6 -4 -13 -10 -16 -5 -3 -10 1 -10 9 0 9 5 16 10 16 6 0 10 -4 10 -9z
m-660 -33 c0 -4 -7 -8 -15 -8 -8 0 -15 4 -15 8 0 5 7 9 15 9 8 0 15 -4 15 -9z
m-2030 -8 c8 -5 12 -11 10 -14 -3 -2 -14 2 -24 10 -22 15 -10 19 14 4z m1109
-26 c-14 -18 -24 -11 -15 11 3 9 11 13 16 10 8 -5 7 -11 -1 -21z m1875 20 c20
-8 21 -24 2 -24 -8 0 -16 7 -20 15 -6 17 -4 18 18 9z m-1294 -8 c0 -3 -4 -8
-10 -11 -5 -3 -10 -1 -10 4 0 6 5 11 10 11 6 0 10 -2 10 -4z m595 -6 c4 -6 -7
-10 -27 -10 -25 0 -29 3 -18 10 19 13 37 13 45 0z m417 -13 c-16 -7 -26 -7
-34 1 -8 8 -2 10 23 10 31 -1 32 -2 11 -11z m-5197 -17 c-3 -5 -12 -10 -18
-10 -7 0 -6 4 3 10 19 12 23 12 15 0z m-298 -24 c-3 -8 1 -20 9 -27 10 -8 12
-15 5 -22 -12 -12 -44 10 -36 23 3 5 -1 11 -7 13 -10 4 -9 8 2 16 21 15 33 14
27 -3z m4288 4 c3 -5 1 -10 -4 -10 -6 0 -11 5 -11 10 0 6 2 10 4 10 3 0 8 -4
11 -10z m145 -20 c0 -16 -22 -22 -33 -11 -8 8 -8 11 2 11 7 0 9 4 6 10 -3 6 1
7 9 4 9 -3 16 -10 16 -14z m-1483 -12 c-3 -8 -6 -5 -6 6 -1 11 2 17 5 13 3 -3
4 -12 1 -19z m2277 -13 c-3 -7 -12 -11 -19 -8 -11 4 -12 8 -2 18 15 16 28 10
21 -10z m-5179 5 c3 -5 1 -10 -4 -10 -6 0 -11 5 -11 10 0 6 2 10 4 10 3 0 8
-4 11 -10z m3365 -14 c0 -3 -4 -8 -10 -11 -5 -3 -10 -1 -10 4 0 6 5 11 10 11
6 0 10 -2 10 -4z m1040 0 c0 -3 -4 -8 -10 -11 -5 -3 -10 -1 -10 4 0 6 5 11 10
11 6 0 10 -2 10 -4z m-4295 -24 c-3 -3 -11 0 -18 7 -9 10 -8 11 6 5 10 -3 15
-9 12 -12z m2917 -22 c10 0 18 -4 18 -9 0 -10 -55 -9 -65 1 -4 4 -4 12 0 18 5
9 10 9 18 1 6 -6 19 -11 29 -11z m-2417 0 c-3 -5 -12 -10 -18 -10 -7 0 -6 4 3
10 19 12 23 12 15 0z m4590 0 c-3 -5 -10 -10 -16 -10 -5 0 -9 5 -9 10 0 6 7
10 16 10 8 0 12 -4 9 -10z m-2236 -27 c10 -19 9 -22 -4 -17 -8 4 -15 15 -15
27 0 23 2 22 19 -10z m-2482 11 c-3 -3 -12 -4 -19 -1 -8 3 -5 6 6 6 11 1 17
-2 13 -5z m2613 2 c0 -3 -4 -8 -10 -11 -5 -3 -10 -1 -10 4 0 6 5 11 10 11 6 0
10 -2 10 -4z m1565 -6 c3 -5 2 -10 -4 -10 -5 0 -13 5 -16 10 -3 6 -2 10 4 10
5 0 13 -4 16 -10z m-1275 -25 c0 -17 -2 -18 -25 -9 -13 5 -14 8 -3 15 19 13
28 11 28 -6z m1330 -4 c0 -5 -7 -14 -15 -21 -16 -14 -18 -10 -9 14 6 17 24 22
24 7z m-1327 -51 c5 -18 3 -19 -11 -8 -9 7 -19 13 -21 15 -1 1 0 7 4 12 9 15
21 6 28 -19z m524 8 c-3 -8 -6 -5 -6 6 -1 11 2 17 5 13 3 -3 4 -12 1 -19z m45
-3 c0 -5 -5 -11 -11 -13 -6 -2 -11 4 -11 13 0 9 5 15 11 13 6 -2 11 -8 11 -13z
m1158 -5 c0 -13 -11 -13 -30 0 -12 8 -11 10 8 10 12 0 22 -4 22 -10z m175 -10
c3 -5 1 -10 -4 -10 -6 0 -11 5 -11 10 0 6 2 10 4 10 3 0 8 -4 11 -10z m-1074
-13 c-1 -12 -15 -9 -19 4 -3 6 1 10 8 8 6 -3 11 -8 11 -12z m-4626 -17 c3 -5
2 -10 -4 -10 -5 0 -13 5 -16 10 -3 6 -2 10 4 10 5 0 13 -4 16 -10z m5915 -12
c-11 -12 -34 -23 -52 -25 -30 -3 -31 -2 -13 12 11 8 28 15 38 15 10 0 16 4 13
8 -2 4 4 8 14 9 19 2 19 1 0 -19z m-1235 -8 c-3 -5 -11 -10 -16 -10 -6 0 -7 5
-4 10 3 6 11 10 16 10 6 0 7 -4 4 -10z m-40 -10 c3 -6 -1 -7 -9 -4 -18 7 -21
14 -7 14 6 0 13 -4 16 -10z m649 -32 c6 -5 1 -8 -13 -8 -17 0 -22 4 -17 16 3
9 7 21 7 27 1 7 4 3 6 -8 3 -11 10 -23 17 -27z m-1390 7 c14 -13 26 -27 26
-30 0 -4 10 -15 23 -25 l22 -19 -23 6 c-12 3 -27 14 -33 24 -5 11 -16 19 -24
19 -9 0 -12 6 -9 15 4 10 0 15 -11 15 -9 0 -13 5 -10 10 8 13 8 13 39 -15z
m-2689 -15 c3 -5 -3 -10 -14 -10 -12 0 -21 5 -21 10 0 6 6 10 14 10 8 0 18 -4
21 -10z m-504 -55 c18 -20 18 -21 -4 -22 -12 0 -16 1 -9 4 10 4 5 11 -15 24
-15 10 -23 19 -16 19 7 0 10 7 7 18 -4 12 -2 12 7 -3 6 -11 20 -29 30 -40z
m3199 25 c0 -5 -4 -10 -10 -10 -5 0 -10 5 -10 10 0 6 5 10 10 10 6 0 10 -4 10
-10z m1062 -8 c-7 -2 -12 -11 -12 -20 0 -14 -2 -15 -10 -2 -11 17 7 43 23 33
8 -5 7 -8 -1 -11z m-837 -12 c3 -5 -1 -10 -9 -10 -8 0 -18 5 -21 10 -3 6 1 10
9 10 8 0 18 -4 21 -10z m2099 -15 c-4 -8 -8 -15 -10 -15 -2 0 -4 7 -4 15 0 8
4 15 10 15 5 0 7 -7 4 -15z m-5077 -37 c-3 -7 -5 -2 -5 12 0 14 2 19 5 13 2
-7 2 -19 0 -25z m53 28 c0 -2 -7 -6 -15 -10 -8 -3 -15 -1 -15 4 0 6 7 10 15
10 8 0 15 -2 15 -4z m2855 -16 c3 -5 1 -10 -4 -10 -6 0 -11 5 -11 10 0 6 2 10
4 10 3 0 8 -4 11 -10z m1762 -42 c-3 -7 -5 -2 -5 12 0 14 2 19 5 13 2 -7 2
-19 0 -25z m-5567 12 c0 -5 -2 -10 -4 -10 -3 0 -8 5 -11 10 -3 6 -1 10 4 10 6
0 11 -4 11 -10z m5410 -15 c0 -8 -4 -15 -9 -15 -13 0 -22 16 -14 24 11 11 23
6 23 -9z m-4830 -5 c0 -5 -5 -10 -11 -10 -5 0 -7 5 -4 10 3 6 8 10 11 10 2 0
4 -4 4 -10z m196 -19 c-4 -6 -17 -10 -29 -10 -17 1 -18 2 -4 6 9 2 17 12 17
21 0 12 3 13 11 5 6 -6 8 -16 5 -22z m3120 2 c-1 -13 5 -17 22 -15 21 2 22 0
8 -13 -16 -16 -12 -45 7 -45 8 0 8 -3 0 -11 -18 -18 -43 -2 -43 26 0 14 -4 25
-10 25 -5 0 -10 -4 -10 -10 0 -5 -16 -10 -35 -10 -38 0 -40 2 -25 29 6 13 18
17 39 15 19 -2 31 2 35 11 7 20 14 19 12 -2z m-3436 -12 c0 -5 -9 -11 -20 -14
-11 -3 -20 -10 -20 -17 0 -7 9 -14 20 -17 11 -3 20 -11 20 -18 0 -10 -12 -7
-40 8 -22 12 -35 24 -30 25 6 2 10 10 10 17 0 12 9 16 53 24 4 0 7 -3 7 -8z
m3569 -25 c9 -11 9 -19 0 -33 -13 -22 -61 -20 -80 3 -10 12 -6 13 21 7 28 -5
32 -3 27 9 -10 28 13 38 32 14z m1489 4 c-2 -19 4 -30 16 -30 7 0 19 -7 26
-15 7 -9 8 -15 2 -15 -11 0 -11 -18 0 -35 4 -6 4 -16 0 -22 -4 -7 -23 3 -51
27 -25 22 -41 43 -37 49 4 6 12 9 17 6 12 -8 12 18 -1 31 -6 6 -3 10 9 10 11
0 19 -3 19 -6z m-5108 -75 c0 -12 -19 -12 -23 0 -4 9 -1 12 9 8 7 -3 14 -7 14
-8z m4735 5 c3 -5 -1 -10 -9 -10 -9 0 -16 5 -16 10 0 6 4 10 9 10 6 0 13 -4
16 -10z m-1232 -46 c-8 -21 -20 -8 -20 23 0 24 1 25 13 9 7 -10 10 -24 7 -32z
m261 4 c6 -4 17 -6 24 -3 27 10 11 -34 -18 -49 -30 -14 -31 -14 -40 9 -7 17
-14 22 -29 18 -12 -3 -21 -11 -21 -18 0 -7 -9 -15 -19 -18 -17 -4 -18 -2 -8
14 6 10 16 19 20 19 5 0 7 7 4 15 -8 20 11 30 28 15 15 -13 39 -4 30 11 -4 5
-3 15 2 22 5 8 9 6 11 -8 3 -11 9 -23 16 -27z m-3589 12 c3 -5 -1 -10 -9 -10
-9 0 -16 5 -16 10 0 6 4 10 9 10 6 0 13 -4 16 -10z m760 0 c3 -5 1 -10 -4 -10
-6 0 -11 5 -11 10 0 6 2 10 4 10 3 0 8 -4 11 -10z m4639 -6 c5 -14 4 -15 -9
-4 -17 14 -19 20 -6 20 5 0 12 -7 15 -16z m-389 -4 c3 -5 1 -10 -4 -10 -6 0
-11 5 -11 10 0 6 2 10 4 10 3 0 8 -4 11 -10z m-1615 -10 c0 -5 -4 -10 -9 -10
-6 0 -13 5 -16 10 -3 6 1 10 9 10 9 0 16 -4 16 -10z m990 -21 c0 -6 -4 -7 -10
-4 -5 3 -10 11 -10 16 0 6 5 7 10 4 6 -3 10 -11 10 -16z m-3643 5 c-3 -3 -12
-4 -19 -1 -8 3 -5 6 6 6 11 1 17 -2 13 -5z m3903 -14 c-20 -13 -33 -13 -25 0
3 6 14 10 23 10 15 0 15 -2 2 -10z m-4430 -14 c0 -3 -4 -8 -10 -11 -5 -3 -10
-1 -10 4 0 6 5 11 10 11 6 0 10 -2 10 -4z m140 -6 c13 -8 12 -10 -4 -10 -12 0
-16 -5 -12 -16 3 -8 2 -12 -4 -9 -12 7 -14 45 -2 45 4 0 14 -5 22 -10z m4653
-17 c-7 -2 -13 -11 -13 -19 0 -9 -4 -13 -10 -9 -14 9 0 35 19 34 10 0 11 -2 4
-6z m-1508 -35 c-4 -33 -6 -35 -14 -13 -7 16 1 33 15 35 1 0 0 -10 -1 -22z
m979 -9 c-7 -11 -34 -12 -34 -1 0 14 11 21 26 15 8 -3 11 -9 8 -14z m-899 -1
c3 -3 -7 -15 -21 -29 -22 -21 -24 -21 -18 -4 4 11 12 24 18 28 6 5 1 5 -11 2
-13 -3 -23 -2 -23 3 0 10 46 10 55 0z m-3602 -68 c-8 -8 -33 32 -27 42 4 6 12
-1 18 -14 7 -12 11 -25 9 -28z m4035 34 c-1 -5 -9 -9 -16 -10 -10 -2 -11 1 -1
12 12 14 24 13 17 -2z m130 -1 c5 -10 7 -24 5 -30 -3 -8 4 -13 17 -13 17 0 19
-3 12 -16 -5 -9 -7 -26 -4 -36 4 -18 3 -19 -15 -7 -12 7 -18 19 -16 29 3 10
-6 28 -19 40 -12 13 -17 19 -9 15 11 -6 13 -3 9 13 -7 26 8 29 20 5z m620 -11
c2 -7 -3 -12 -12 -12 -10 0 -14 -6 -10 -17 3 -10 -1 -7 -9 7 -11 18 -12 27 -4
32 15 10 30 5 35 -10z m87 -2 c3 -5 1 -10 -4 -10 -6 0 -11 5 -11 10 0 6 2 10
4 10 3 0 8 -4 11 -10z m-739 -37 c-7 -8 -46 12 -46 24 0 11 5 10 24 -4 13 -10
23 -19 22 -20z m-4098 -8 c-4 -21 -2 -24 12 -20 24 8 50 -4 50 -22 0 -13 3
-13 15 -3 22 18 30 5 17 -26 -11 -24 -11 -25 10 -19 22 6 22 6 4 -9 -32 -26
-88 -14 -71 15 5 8 -1 6 -12 -4 -20 -17 -21 -17 -37 8 -10 15 -15 33 -12 41 3
8 2 14 -3 14 -12 0 -9 33 4 42 19 14 27 8 23 -17z m4212 15 c0 -5 -4 -10 -9
-10 -6 0 -13 5 -16 10 -3 6 1 10 9 10 9 0 16 -4 16 -10z m685 -38 c1 -40 -9
-41 -28 -2 -11 21 -12 30 -3 34 22 9 31 -1 31 -32z m515 28 c0 -5 -2 -10 -4
-10 -3 0 -8 5 -11 10 -3 6 -1 10 4 10 6 0 11 -4 11 -10z m-1864 -30 c8 0 11
-6 8 -15 -8 -20 -34 0 -33 24 0 10 2 11 6 4 2 -7 11 -13 19 -13z m338 -5 c9
-14 12 -25 7 -25 -5 0 -13 5 -16 10 -3 6 -15 10 -26 10 -19 0 -25 11 -12 23
13 14 31 7 47 -18z m199 -8 c16 -10 25 -22 22 -25 -3 -4 -10 0 -16 8 -8 13
-10 13 -19 0 -11 -18 -32 -2 -37 30 -3 23 0 22 50 -13z m317 -7 c0 -24 -36
-15 -43 9 -3 14 1 17 19 13 15 -3 24 -11 24 -22z m-690 10 c0 -5 -2 -10 -4
-10 -3 0 -8 5 -11 10 -3 6 -1 10 4 10 6 0 11 -4 11 -10z m790 -3 c0 -8 -7 -14
-15 -14 -16 0 -19 9 -8 20 11 11 23 8 23 -6z m-540 -1 c0 -3 -4 -8 -10 -11 -5
-3 -10 -1 -10 4 0 6 5 11 10 11 6 0 10 -2 10 -4z m493 -8 c-6 -11 -31 -10 -37
1 -3 5 5 8 18 7 13 0 22 -4 19 -8z m-108 -8 c-3 -5 -12 -10 -20 -10 -8 0 -17
5 -20 10 -4 6 5 10 20 10 15 0 24 -4 20 -10z m595 -30 c0 -5 -5 -10 -11 -10
-5 0 -7 5 -4 10 3 6 8 10 11 10 2 0 4 -4 4 -10z m42 -11 c2 -5 12 -11 21 -13
10 -1 23 -9 28 -17 11 -18 12 -69 1 -69 -15 0 -48 33 -66 65 -12 22 -15 24
-11 8 5 -17 2 -23 -9 -23 -21 0 -20 19 1 42 18 20 30 23 35 7z m-749 -6 c-28
-11 -11 -21 28 -18 31 2 47 -2 62 -16 12 -10 28 -19 36 -19 13 0 14 -2 2 -9
-8 -5 -11 -16 -8 -24 3 -9 -1 -18 -9 -21 -9 -4 -18 3 -24 20 -7 18 -16 24 -32
22 -12 -2 -23 -9 -26 -16 -3 -11 0 -12 18 -2 12 6 24 9 28 6 9 -10 -4 -17 -34
-19 -24 -2 -29 2 -27 18 1 12 -7 26 -17 33 -16 10 -20 10 -20 0 0 -10 -3 -9
-9 1 -9 15 15 52 34 50 5 0 4 -3 -2 -6z m-3518 -51 c-11 -9 -15 -11 -8 -3 6 7
9 21 6 30 -5 13 -3 14 8 3 11 -10 10 -15 -6 -30z m2967 -10 c-7 -2 -10 -8 -7
-13 4 -5 -1 -6 -10 -2 -14 5 -14 8 -3 15 10 8 10 11 0 15 -6 2 -10 9 -6 14 3
5 13 2 22 -8 12 -12 13 -18 4 -21z m301 24 c9 -7 17 -21 17 -32 0 -17 0 -17
-13 1 -9 11 -19 15 -27 10 -8 -5 -11 -4 -6 3 3 6 -2 15 -11 21 -17 10 -17 10
2 10 11 0 28 -6 38 -13z m-3852 -39 c-8 -8 -11 -3 -11 19 1 25 2 27 11 11 8
-14 8 -22 0 -30z m-57 26 c4 -5 12 -8 17 -8 5 0 9 -4 10 -10 0 -5 5 -16 11
-22 15 -19 -4 -16 -32 4 -14 10 -27 16 -30 15 -3 -2 -6 4 -8 12 -4 16 19 22
32 9z m4156 -13 c0 -5 -5 -10 -11 -10 -5 0 -7 5 -4 10 3 6 8 10 11 10 2 0 4
-4 4 -10z m-4025 -10 c3 -5 -2 -10 -12 -10 -17 -1 -16 -1 1 -12 15 -8 21 -8
24 0 2 7 8 12 13 12 4 0 6 -7 3 -15 -4 -10 0 -15 12 -15 13 0 15 -3 7 -11 -7
-7 -18 -8 -29 -2 -11 5 -26 9 -34 9 -22 -2 -49 25 -43 40 6 16 49 19 58 4z
m3365 -16 c0 -8 -4 -14 -8 -14 -4 0 -8 9 -8 19 0 11 4 17 8 15 4 -3 8 -12 8
-20z m-3815 -24 c4 -6 -6 -10 -22 -9 -25 0 -26 1 -8 9 11 5 21 9 22 9 1 1 5
-3 8 -9z m465 -36 c0 -8 6 -14 13 -14 13 -1 -21 -30 -35 -30 -4 0 -12 9 -18
21 -9 17 -8 23 7 34 20 15 33 11 33 -11z m3373 -17 c-3 -5 1 -13 8 -18 10 -6
8 -9 -8 -9 -16 0 -21 4 -17 15 4 8 1 15 -5 15 -6 0 -11 7 -11 15 0 12 3 13 19
3 11 -7 17 -16 14 -21z m1197 18 c-7 -8 -18 -15 -24 -15 -6 0 -2 7 8 15 25 19
32 19 16 0z m250 11 c0 -3 -4 -8 -10 -11 -5 -3 -10 -1 -10 4 0 6 5 11 10 11 6
0 10 -2 10 -4z m335 -5 c-3 -6 -14 -9 -25 -8 -24 2 -15 17 11 17 11 0 18 -4
14 -9z m-995 -37 c0 -8 -4 -14 -9 -14 -11 0 -22 26 -14 34 9 9 23 -3 23 -20z
m-680 6 c0 -5 -4 -10 -10 -10 -5 0 -10 5 -10 10 0 6 5 10 10 10 6 0 10 -4 10
-10z m336 -18 c-4 -3 -14 2 -24 12 -16 18 -16 18 6 6 13 -6 21 -14 18 -18z
m-746 -12 c6 -11 9 -20 7 -20 -2 0 -12 9 -22 20 -10 11 -13 20 -7 20 6 0 16
-9 22 -20z m847 -30 c3 -36 1 -37 -32 -5 -35 36 -34 57 3 44 20 -7 28 -16 29
-39z m769 -24 c17 4 26 1 30 -10 3 -9 10 -13 15 -10 5 3 9 1 9 -3 0 -5 -9 -14
-20 -20 -15 -10 -22 -10 -34 2 -8 8 -19 15 -25 15 -13 0 -10 -22 4 -33 6 -5 4
-7 -4 -5 -8 3 -18 16 -22 31 -4 16 -3 25 2 21 5 -3 10 5 10 18 1 17 3 18 6 5
3 -12 11 -15 29 -11z m-1106 -15 c20 -1 22 -3 10 -11 -19 -12 -20 -32 -1 -46
12 -10 11 -13 -9 -19 -15 -5 -25 -4 -28 4 -2 6 -8 9 -13 5 -13 -8 -11 10 2 23
9 9 8 16 -5 28 -20 21 -20 24 2 20 9 -2 28 -4 42 -4z m467 -4 c4 -6 1 -7 -7
-2 -10 6 -11 2 -6 -19 4 -16 2 -26 -5 -26 -6 0 -9 -7 -5 -15 3 -9 0 -15 -9
-15 -8 0 -15 7 -15 15 0 8 -9 19 -20 25 -24 13 -17 32 7 23 12 -5 15 -2 11 9
-5 11 0 16 18 16 13 0 27 -5 31 -11z m393 -13 c0 -8 -7 -14 -15 -14 -8 0 -15
9 -15 20 0 13 5 18 15 14 8 -4 15 -12 15 -20z m54 10 c10 -26 -1 -28 -25 -5
-22 21 -22 21 -2 21 11 0 24 -7 27 -16z m-1094 -4 c0 -5 -4 -10 -9 -10 -6 0
-13 5 -16 10 -3 6 1 10 9 10 9 0 16 -4 16 -10z m974 -4 c13 5 56 -55 56 -77 0
-12 -2 -12 -9 0 -6 9 -18 12 -37 7 -28 -7 -28 -7 -10 13 19 21 19 21 -2 21
-12 0 -22 -4 -22 -10 0 -5 -8 -6 -17 -3 -11 4 -13 8 -5 11 7 2 9 8 6 13 -10
17 5 44 18 31 6 -6 16 -9 22 -6z m-494 -6 c0 -5 -4 -10 -10 -10 -5 0 -10 5
-10 10 0 6 5 10 10 10 6 0 10 -4 10 -10z m35 -19 c-6 -5 -25 10 -25 20 0 5 6
4 14 -3 8 -7 12 -15 11 -17z m35 13 c0 -8 -4 -12 -10 -9 -5 3 -10 10 -10 16 0
5 5 9 10 9 6 0 10 -7 10 -16z m-330 -4 c-12 -8 -12 -10 -1 -10 8 0 12 -3 8 -6
-9 -9 -28 6 -22 17 4 5 12 9 18 9 7 0 6 -4 -3 -10z m-224 -27 c-10 -10 -19 5
-10 18 6 11 8 11 12 0 2 -7 1 -15 -2 -18z m124 17 c0 -5 -2 -10 -4 -10 -3 0
-8 5 -11 10 -3 6 -1 10 4 10 6 0 11 -4 11 -10z m1210 -19 c0 -6 -4 -13 -10
-16 -5 -3 -10 1 -10 9 0 9 5 16 10 16 6 0 10 -4 10 -9z m487 -26 c0 -8 -4 -12
-9 -9 -5 3 -6 10 -3 15 9 13 12 11 12 -6z m-1594 -2 c-7 -2 -19 -2 -25 0 -7 3
-2 5 12 5 14 0 19 -2 13 -5z m1630 -17 c4 -10 1 -13 -9 -9 -7 3 -14 9 -14 14
0 14 17 10 23 -5z m-1141 -14 c-7 -2 -12 -8 -12 -14 0 -6 6 -8 14 -5 8 3 17
-1 20 -10 5 -12 1 -14 -19 -11 -14 3 -25 1 -25 -3 0 -5 -7 -9 -16 -9 -8 0 -13
4 -10 9 4 5 -3 7 -15 4 -19 -5 -20 -4 -8 15 7 11 17 18 21 16 5 -3 15 2 24 10
9 9 21 13 27 9 8 -5 8 -8 -1 -11z m-174 -18 c-2 -8 -7 -15 -13 -15 -5 -1 -15
-5 -22 -11 -14 -11 -33 -3 -33 15 0 7 4 6 10 -3 9 -13 13 -12 28 7 20 26 35
30 30 7z m77 -4 c0 -21 -28 -19 -31 3 -2 12 3 17 14 15 9 -2 17 -10 17 -18z
m-361 -5 c3 -8 1 -15 -4 -15 -6 0 -10 4 -10 10 0 5 -6 7 -14 4 -8 -3 -17 -1
-21 5 -4 7 3 11 18 11 14 0 27 -7 31 -15z m-3245 -31 c-6 -8 -15 -14 -20 -14
-14 0 -11 28 4 33 20 7 29 -4 16 -19z m2520 -5 c-19 -11 -24 -3 -8 14 8 9 16
11 18 5 2 -6 -3 -14 -10 -19z m1546 21 c3 -5 3 -15 -1 -21 -6 -11 -23 6 -24
24 0 10 18 9 25 -3z m-1381 -12 c-3 -4 -14 -8 -25 -8 -11 0 -18 4 -15 8 2 4
14 8 25 8 11 0 17 -4 15 -8z m652 -30 l16 -33 -26 29 c-29 32 -30 36 -16 36 5
0 17 -15 26 -32z m-731 12 c-3 -5 -10 -10 -16 -10 -5 0 -9 5 -9 10 0 6 7 10
16 10 8 0 12 -4 9 -10z m1015 -21 c0 -5 -6 -9 -14 -9 -15 0 -28 24 -19 34 7 7
33 -13 33 -25z m70 21 c0 -12 -35 -31 -43 -24 -3 3 -3 12 0 20 6 16 43 19 43
4z m-4430 -24 c0 -3 -4 -8 -10 -11 -5 -3 -10 -1 -10 4 0 6 5 11 10 11 6 0 10
-2 10 -4z m4493 -16 c3 -12 0 -20 -8 -20 -14 0 -27 25 -18 34 11 11 21 6 26
-14z m32 0 c3 -5 2 -10 -4 -10 -5 0 -13 5 -16 10 -3 6 -2 10 4 10 5 0 13 -4
16 -10z m502 4 c-3 -3 -12 -4 -19 -1 -8 3 -5 6 6 6 11 1 17 -2 13 -5z m-1657
-19 c10 -12 10 -15 -4 -15 -9 0 -16 7 -16 15 0 8 2 15 4 15 2 0 9 -7 16 -15z
m610 -15 c13 -11 20 -23 16 -27 -3 -4 -19 5 -34 20 -31 31 -16 37 18 7z m1047
-12 c-3 -8 -6 -5 -6 6 -1 11 2 17 5 13 3 -3 4 -12 1 -19z m-461 3 c-7 -11 42
-57 51 -48 3 4 1 7 -5 7 -7 0 -12 9 -12 20 0 24 6 25 26 6 17 -18 18 -43 2
-49 -10 -3 -10 -8 1 -21 12 -14 12 -16 -3 -10 -9 3 -16 1 -16 -5 0 -6 5 -11
11 -11 8 0 8 -5 -1 -15 -19 -22 -25 -18 -26 17 -1 34 -29 62 -56 55 -9 -3 -19
2 -22 10 -4 11 -1 13 14 8 24 -8 27 10 3 19 -15 6 -15 8 -3 16 19 12 43 13 36
1z m128 -46 c-4 -8 -1 -15 7 -15 7 0 10 -3 6 -6 -3 -3 -15 1 -27 9 -20 14 -21
16 -3 20 10 3 19 5 20 6 1 0 0 -6 -3 -14z m-1214 -10 c-7 -9 -15 -13 -17 -11
-7 7 7 26 19 26 6 0 6 -6 -2 -15z m46 -45 c-3 -14 -3 -19 0 -12 3 6 10 12 16
12 5 0 8 -6 5 -12 -2 -7 0 -21 5 -30 5 -11 5 -18 -1 -18 -5 0 -11 7 -15 15 -3
8 -11 15 -18 15 -8 0 -19 13 -25 29 -10 27 -9 29 14 27 20 -1 23 -5 19 -26z
m329 -20 c3 -5 -1 -10 -9 -10 -9 0 -16 5 -16 10 0 6 4 10 9 10 6 0 13 -4 16
-10z m1285 -20 c0 -4 -11 -5 -25 -2 -14 2 -23 8 -20 12 6 10 45 1 45 -10z m80
16 c0 -3 -4 -8 -10 -11 -5 -3 -10 -1 -10 4 0 6 5 11 10 11 6 0 10 -2 10 -4z
m-361 -35 c-15 -5 -22 6 -14 19 6 9 10 9 16 -1 5 -8 4 -15 -2 -18z m-1271 -54
c1 -4 2 -18 2 -31 0 -19 -4 -22 -25 -18 -27 5 -58 39 -49 54 6 10 68 5 72 -5z
m-101 -12 c0 -8 -4 -12 -9 -9 -5 3 -6 10 -3 15 9 13 12 11 12 -6z m828 6 c3
-5 1 -12 -5 -16 -5 -3 -10 1 -10 9 0 18 6 21 15 7z m-855 -12 c0 -6 -6 -9 -14
-6 -8 3 -17 -1 -20 -8 -3 -9 -12 -12 -21 -9 -12 5 -13 9 -4 20 14 17 59 19 59
3z m1341 -13 c1 10 5 1 9 -21 9 -45 6 -53 -12 -37 -7 6 -17 11 -23 12 -5 1 -8
7 -6 14 2 6 3 20 3 31 -1 20 -1 20 14 1 14 -20 14 -20 15 0z m-371 -22 c0 -2
-9 -4 -21 -4 -11 0 -18 4 -14 10 5 8 35 3 35 -6z m-299 -36 c7 -2 9 -10 5 -16
-10 -17 -26 -15 -26 4 0 9 -9 18 -19 21 -11 3 -17 11 -15 18 4 10 10 9 24 -5
9 -9 23 -19 31 -22z m153 26 c3 -7 -6 -14 -20 -17 -17 -3 -24 0 -24 12 0 19
37 23 44 5z m-3640 -8 c-10 -8 -21 -12 -24 -10 -5 6 21 24 34 24 6 0 1 -6 -10
-14z m3371 -26 c17 -7 14 -9 -13 -9 -20 -1 -31 3 -27 9 7 12 13 12 40 0z m955
-45 c-7 -9 -15 -13 -18 -10 -3 2 1 11 8 20 7 9 15 13 18 10 3 -2 -1 -11 -8
-20z m-4331 -7 c-10 -19 -29 -16 -29 5 0 7 9 13 19 13 16 0 18 -4 10 -18z
m3881 1 c0 -5 -10 -9 -21 -9 -18 0 -19 2 -9 15 12 15 30 12 30 -6z m650 11 c0
-5 -2 -10 -4 -10 -3 0 -8 5 -11 10 -3 6 -1 10 4 10 6 0 11 -4 11 -10z m-322
-45 c-3 -3 -9 2 -12 12 -6 14 -5 15 5 6 7 -7 10 -15 7 -18z m-918 11 c0 -2 -9
-6 -20 -9 -11 -3 -20 -1 -20 4 0 5 9 9 20 9 11 0 20 -2 20 -4z m405 -6 c3 -5
1 -10 -4 -10 -6 0 -11 5 -11 10 0 6 2 10 4 10 3 0 8 -4 11 -10z m581 -5 c-8
-8 -18 -15 -22 -15 -3 0 -1 7 6 15 7 8 17 15 22 15 5 0 3 -7 -6 -15z m-4462
-20 c3 -9 0 -15 -9 -15 -16 0 -27 14 -18 24 10 10 21 7 27 -9z m4336 5 c0 -5
-2 -10 -4 -10 -3 0 -8 5 -11 10 -3 6 -1 10 4 10 6 0 11 -4 11 -10z m345 -11
c11 -17 -1 -21 -15 -4 -8 9 -8 15 -2 15 6 0 14 -5 17 -11z m49 -27 c-17 -4
-18 -19 -1 -25 9 -4 9 -6 0 -6 -17 -1 -27 19 -15 31 6 6 8 18 5 27 -4 11 -1
10 10 -4 13 -17 13 -20 1 -23z m-724 8 c0 -5 -5 -10 -11 -10 -5 0 -7 5 -4 10
3 6 8 10 11 10 2 0 4 -4 4 -10z m510 -4 c0 -8 -7 -16 -15 -20 -10 -4 -15 1
-15 14 0 11 7 20 15 20 8 0 15 -6 15 -14z m-1018 -18 c-7 -7 -12 -8 -12 -2 0
14 12 26 19 19 2 -3 -1 -11 -7 -17z m478 2 c0 -5 -4 -10 -10 -10 -5 0 -10 5
-10 10 0 6 5 10 10 10 6 0 10 -4 10 -10z m630 0 c0 -5 -4 -10 -10 -10 -5 0
-10 5 -10 10 0 6 5 10 10 10 6 0 10 -4 10 -10z m-1023 -14 c-3 -7 1 -25 8 -39
11 -22 11 -26 -3 -32 -8 -3 -20 0 -26 6 -8 8 -8 13 2 16 22 8 14 35 -8 28 -23
-7 -25 0 -7 20 16 18 41 19 34 1z m1040 -31 c-14 -15 -51 0 -42 16 4 5 10 7
15 4 5 -3 12 0 16 6 5 8 9 8 14 -1 5 -7 3 -19 -3 -25z m-717 -47 c0 -16 -19
-8 -30 12 -6 11 -8 20 -4 20 4 0 1 8 -7 18 -8 10 -2 5 14 -12 15 -17 27 -34
27 -38z m573 59 c4 3 7 1 7 -5 0 -18 -27 -14 -34 4 -5 13 -4 14 7 6 8 -7 17
-9 20 -5z m-839 -12 c11 -8 16 -20 12 -30 -7 -19 -26 -11 -26 11 0 8 -4 14
-10 14 -5 0 -10 5 -10 10 0 14 11 12 34 -5z m-3614 -5 c0 -5 -4 -10 -10 -10
-5 0 -10 5 -10 10 0 6 5 10 10 10 6 0 10 -4 10 -10z m4147 4 c-3 -3 -12 -4
-19 -1 -8 3 -5 6 6 6 11 1 17 -2 13 -5z m-4067 -14 c0 -5 -4 -10 -10 -10 -5 0
-10 5 -10 10 0 6 5 10 10 10 6 0 10 -4 10 -10z m3588 -32 c-14 -21 -73 -35
-82 -19 -2 3 7 7 21 8 14 0 28 5 32 11 5 7 24 18 40 21 2 1 -3 -9 -11 -21z
m972 -53 c0 -17 -2 -18 -24 -9 -23 9 -20 24 4 24 11 0 20 -7 20 -15z m74 8 c4
-5 13 -8 19 -8 7 0 13 -8 15 -17 2 -13 -3 -18 -17 -18 -12 0 -21 -4 -21 -10 0
-5 -5 -10 -11 -10 -6 0 -8 9 -4 21 6 18 4 21 -13 17 -15 -4 -18 -1 -15 13 5
19 33 26 47 12z m-1149 -42 c3 -5 -10 -9 -29 -8 -19 1 -32 5 -29 10 6 10 51 9
58 -2z m258 -13 c6 -21 -11 -23 -36 -4 -13 10 -15 15 -5 18 25 9 37 5 41 -14z
m72 -8 c-3 -5 -12 -10 -18 -10 -7 0 -6 4 3 10 19 12 23 12 15 0z m892 -12 c-3
-8 -6 -5 -6 6 -1 11 2 17 5 13 3 -3 4 -12 1 -19z m-435 -10 c-9 -9 -15 -9 -24
1 -11 10 -10 11 5 6 10 -5 17 -2 17 6 0 7 3 9 7 6 4 -4 1 -13 -5 -19z m-285
-20 c-3 -8 -6 -5 -6 6 -1 11 2 17 5 13 3 -3 4 -12 1 -19z m118 2 c3 -5 1 -10
-4 -10 -6 0 -11 5 -11 10 0 6 2 10 4 10 3 0 8 -4 11 -10z m615 0 c0 -5 -5 -10
-11 -10 -5 0 -7 5 -4 10 3 6 8 10 11 10 2 0 4 -4 4 -10z m-1027 -113 c-3 -5 0
-13 7 -17 8 -5 6 -9 -8 -12 -15 -4 -19 -1 -18 17 0 12 6 22 13 22 7 0 9 -5 6
-10z m-642 -17 c23 -13 25 -30 4 -30 -8 0 -15 7 -15 16 0 8 -4 12 -10 9 -5 -3
-10 -1 -10 4 0 14 6 14 31 1z m799 -19 c0 -5 -7 -11 -14 -14 -10 -4 -13 -1 -9
9 6 15 23 19 23 5z m385 -11 c3 -5 1 -10 -4 -10 -6 0 -11 5 -11 10 0 6 2 10 4
10 3 0 8 -4 11 -10z m-595 -21 c0 -18 -2 -19 -15 -9 -8 7 -15 16 -15 21 0 5 7
9 15 9 9 0 15 -9 15 -21z m-64 -15 c-11 -7 -22 -12 -25 -9 -2 3 4 12 15 19 10
8 21 12 24 9 3 -2 -4 -11 -14 -19z m584 1 c0 -8 -2 -15 -4 -15 -2 0 -6 7 -10
15 -3 8 -1 15 4 15 6 0 10 -7 10 -15z m120 -25 c0 -5 -4 -10 -10 -10 -5 0 -10
5 -10 10 0 6 5 10 10 10 6 0 10 -4 10 -10z m-300 -44 c0 -3 -4 -8 -10 -11 -5
-3 -10 -1 -10 4 0 6 5 11 10 11 6 0 10 -2 10 -4z m374 -14 c2 -4 1 -14 -5 -22
-7 -12 -9 -12 -9 4 0 12 -5 16 -16 12 -8 -3 -12 -2 -9 4 7 12 32 13 39 2z
m-884 -32 c0 -5 -7 -10 -16 -10 -8 0 -12 5 -9 10 3 6 10 10 16 10 5 0 9 -4 9
-10z m955 -50 c3 -6 -1 -7 -9 -4 -18 7 -21 14 -7 14 6 0 13 -4 16 -10z m-1440
-20 c-3 -5 -12 -10 -18 -10 -7 0 -6 4 3 10 19 12 23 12 15 0z m1366 -34 c8 4
9 3 5 -4 -4 -7 -2 -12 5 -12 7 0 9 -3 6 -7 -4 -3 -2 -13 5 -20 10 -12 6 -14
-22 -11 -27 2 -35 8 -41 30 -8 31 -1 42 17 27 7 -6 19 -7 25 -3z m66 -42 c-3
-4 1 -13 9 -22 14 -13 14 -16 1 -24 -9 -4 -22 -6 -30 -3 -19 8 -10 55 11 55 8
0 13 -3 9 -6z m-267 -30 c0 -2 -7 -4 -15 -4 -8 0 -15 4 -15 10 0 5 7 7 15 4 8
-4 15 -8 15 -10z m187 -26 c-3 -8 -6 -5 -6 6 -1 11 2 17 5 13 3 -3 4 -12 1
-19z m102 -29 c-16 -10 -23 -4 -14 10 3 6 11 8 17 5 6 -4 5 -9 -3 -15z m46 1
c3 -5 2 -10 -4 -10 -5 0 -13 5 -16 10 -3 6 -2 10 4 10 5 0 13 -4 16 -10z m45
-16 c0 -2 -7 -4 -15 -4 -8 0 -15 4 -15 10 0 5 7 7 15 4 8 -4 15 -8 15 -10z
m-15 -30 c14 -15 25 -21 25 -15 0 7 5 9 10 6 6 -4 8 -10 5 -15 -3 -5 13 -7 35
-5 22 2 42 -1 45 -6 4 -5 -3 -9 -14 -9 -12 0 -21 -5 -21 -11 0 -5 -4 -7 -10
-4 -5 3 -10 1 -10 -6 0 -7 11 -9 35 -5 22 4 35 3 35 -4 0 -5 -3 -9 -7 -9 -5 1
-16 1 -26 0 -14 -1 -16 -5 -7 -21 6 -11 16 -17 25 -14 9 4 15 0 15 -8 0 -22
-58 -10 -65 13 -4 10 -10 19 -14 19 -3 0 -15 14 -25 31 -10 17 -24 28 -31 25
-7 -2 -16 2 -19 11 -4 8 -12 13 -20 10 -9 -4 -12 2 -8 19 6 31 17 30 47 -2z
m131 -21 c-4 -4 -11 -1 -16 7 -7 11 -11 11 -24 1 -9 -8 -16 -10 -16 -6 0 4 8
14 18 21 14 11 20 10 31 -1 8 -8 11 -18 7 -22z m-541 17 c3 -5 2 -10 -4 -10
-5 0 -13 5 -16 10 -3 6 -2 10 4 10 5 0 13 -4 16 -10z m18 -31 c-4 -15 -8 -17
-14 -8 -6 11 4 28 18 29 0 0 -1 -9 -4 -21z m263 -118 c-12 -19 -24 -12 -19 10
4 13 9 17 15 11 6 -6 7 -15 4 -21z m54 5 c0 -2 -9 -6 -20 -9 -11 -3 -20 -1
-20 4 0 5 9 9 20 9 11 0 20 -2 20 -4z m-257 -56 c3 -11 1 -20 -4 -20 -5 0 -9
9 -9 20 0 11 2 20 4 20 2 0 6 -9 9 -20z m680 -77 c-7 -2 -19 -2 -25 0 -7 3 -2
5 12 5 14 0 19 -2 13 -5z m67 -3 c12 -7 12 -12 2 -22 -9 -9 -12 -9 -12 0 0 7
-9 12 -21 12 -11 0 -17 5 -14 10 8 12 25 13 45 0z m-1445 -20 c3 -6 -1 -7 -9
-4 -18 7 -21 14 -7 14 6 0 13 -4 16 -10z m575 -20 c0 -5 -2 -10 -4 -10 -3 0
-8 5 -11 10 -3 6 -1 10 4 10 6 0 11 -4 11 -10z m-440 -90 c0 -5 -2 -10 -4 -10
-3 0 -8 5 -11 10 -3 6 -1 10 4 10 6 0 11 -4 11 -10z m1210 -46 c0 -8 -7 -14
-16 -14 -9 0 -12 5 -8 12 5 8 2 9 -9 5 -14 -5 -15 -3 -5 13 9 14 16 16 25 8 7
-6 13 -17 13 -24z m-621 5 c-16 -10 -23 -4 -14 10 3 6 11 8 17 5 6 -4 5 -9 -3
-15z m-559 -39 c0 -5 -2 -10 -4 -10 -3 0 -8 5 -11 10 -3 6 -1 10 4 10 6 0 11
-4 11 -10z m1105 -90 c3 -6 -1 -7 -9 -4 -18 7 -21 14 -7 14 6 0 13 -4 16 -10z
m-1697 -44 c9 12 42 14 42 2 0 -5 4 -7 9 -4 12 8 28 -13 37 -49 7 -29 7 -30
-13 -12 -11 9 -23 14 -26 11 -4 -4 -9 1 -13 10 -3 9 -15 16 -26 16 -10 0 -17
-4 -14 -8 2 -4 -4 -8 -14 -9 -11 -1 -22 2 -25 8 -4 5 -17 9 -31 9 -35 0 -30
18 9 28 20 6 37 5 45 -1 8 -7 16 -7 20 -1z m-309 -5 c7 -5 9 -11 5 -14 -5 -3
-15 1 -22 9 -14 16 -5 18 17 5z m-164 -21 c-3 -5 -10 -10 -16 -10 -5 0 -9 5
-9 10 0 6 7 10 16 10 8 0 12 -4 9 -10z m2177 -42 c-7 -7 -12 -8 -12 -2 0 14
12 26 19 19 2 -3 -1 -11 -7 -17z m105 -10 c-3 -8 -6 -5 -6 6 -1 11 2 17 5 13
3 -3 4 -12 1 -19z"/>
<path d="M6526 8124 c-8 -20 -8 -24 2 -24 4 0 8 9 9 20 2 24 -3 26 -11 4z"/>
<path d="M6394 7971 c11 -11 23 -21 28 -21 14 0 -1 19 -25 31 -22 12 -22 12
-3 -10z"/>
<path d="M6406 7925 c4 -8 10 -12 15 -9 14 8 10 24 -6 24 -9 0 -12 -6 -9 -15z"/>
<path d="M6476 7907 c3 -10 9 -15 12 -12 3 3 0 11 -7 18 -10 9 -11 8 -5 -6z"/>
<path d="M6505 7880 c-3 -5 -1 -10 4 -10 6 0 11 5 11 10 0 6 -2 10 -4 10 -3 0
-8 -4 -11 -10z"/>
<path d="M5890 8020 c0 -5 5 -10 11 -10 5 0 7 5 4 10 -3 6 -8 10 -11 10 -2 0
-4 -4 -4 -10z"/>
<path d="M7835 7730 c3 -5 8 -10 11 -10 2 0 4 5 4 10 0 6 -5 10 -11 10 -5 0
-7 -4 -4 -10z"/>
<path d="M8236 7541 c-4 -6 -13 -8 -21 -4 -8 3 -15 0 -15 -7 0 -6 -4 -8 -10
-5 -5 3 -10 1 -10 -6 0 -7 11 -10 30 -7 16 2 31 0 33 -5 1 -5 8 -3 15 6 10 11
9 17 -2 26 -9 8 -16 8 -20 2z"/>
<path d="M3340 7552 c0 -5 7 -13 16 -16 10 -4 14 -1 12 6 -5 15 -28 23 -28 10z"/>
<path d="M5795 7210 c-3 -5 -1 -10 4 -10 6 0 11 5 11 10 0 6 -2 10 -4 10 -3 0
-8 -4 -11 -10z"/>
<path d="M5570 7200 c0 -5 5 -10 11 -10 5 0 7 5 4 10 -3 6 -8 10 -11 10 -2 0
-4 -4 -4 -10z"/>
<path d="M3655 7099 c-10 -15 3 -25 16 -12 7 7 7 13 1 17 -6 3 -14 1 -17 -5z"/>
<path d="M3635 7060 c-8 -13 5 -13 25 0 13 8 13 10 -2 10 -9 0 -20 -4 -23 -10z"/>
<path d="M3131 7004 c0 -11 3 -14 6 -6 3 7 2 16 -1 19 -3 4 -6 -2 -5 -13z"/>
<path d="M7735 5610 c3 -5 8 -10 11 -10 2 0 4 5 4 10 0 6 -5 10 -11 10 -5 0
-7 -4 -4 -10z"/>
<path d="M3893 8475 c-17 -19 -16 -25 5 -25 11 0 18 8 19 20 2 23 -7 25 -24 5z"/>
<path d="M5697 8269 c-4 -16 -3 -18 9 -8 16 13 19 29 5 29 -5 0 -11 -9 -14
-21z"/>
<path d="M5498 8258 c-16 -5 -28 -14 -28 -19 0 -12 49 0 75 17 19 14 19 14 0
13 -11 0 -32 -5 -47 -11z"/>
<path d="M8865 7330 c3 -5 8 -10 11 -10 2 0 4 5 4 10 0 6 -5 10 -11 10 -5 0
-7 -4 -4 -10z"/>
<path d="M4864 6424 c0 -13 5 -23 11 -21 16 6 18 34 2 40 -9 3 -13 -3 -13 -19z"/>
<path d="M4875 6340 c3 -5 8 -10 11 -10 2 0 4 5 4 10 0 6 -5 10 -11 10 -5 0
-7 -4 -4 -10z"/>
<path d="M7020 5710 c0 -5 5 -10 11 -10 5 0 7 5 4 10 -3 6 -8 10 -11 10 -2 0
-4 -4 -4 -10z"/>
<path d="M7275 5389 c-4 -6 -5 -12 -2 -15 2 -3 7 2 10 11 7 17 1 20 -8 4z"/>
<path d="M7331 5095 c5 -23 30 -27 37 -5 3 8 1 12 -3 8 -5 -4 -15 -2 -23 4
-12 10 -14 9 -11 -7z"/>
<path d="M7365 5040 c3 -5 8 -10 11 -10 2 0 4 5 4 10 0 6 -5 10 -11 10 -5 0
-7 -4 -4 -10z"/>
<path d="M7270 5020 c0 -5 5 -10 10 -10 6 0 10 5 10 10 0 6 -4 10 -10 10 -5 0
-10 -4 -10 -10z"/>
<path d="M7455 4690 c-4 -7 -1 -16 6 -21 17 -10 26 8 11 23 -6 6 -12 6 -17 -2z"/>
<path d="M7500 4622 c0 -12 3 -12 15 -2 8 7 15 13 15 15 0 1 -7 2 -15 2 -8 0
-15 -7 -15 -15z"/>
<path d="M7290 4591 c0 -22 15 -35 30 -26 7 4 7 13 0 26 -14 25 -30 25 -30 0z"/>
<path d="M7340 3710 c0 -5 5 -10 10 -10 6 0 10 5 10 10 0 6 -4 10 -10 10 -5 0
-10 -4 -10 -10z"/>
<path d="M9506 3042 c-3 -6 -1 -14 5 -17 15 -10 25 3 12 16 -7 7 -13 7 -17 1z"/>
<path d="M8545 2450 c-3 -5 -1 -10 4 -10 6 0 11 5 11 10 0 6 -2 10 -4 10 -3 0
-8 -4 -11 -10z"/>
</g>
</svg>
